<?xml version="1.0" encoding="UTF-8"?>
<svg width="128pt" height="128pt" version="1.1" viewBox="0 0 128 128" xmlns="http://www.w3.org/2000/svg">
 <path d="m122 44h-6v-6c0-3.3086-2.6914-6-6-6h-8c-3.3086 0-6 2.6914-6 6v20h-6v-1c0-3.8594-3.1406-7-7-7-1.957 0-3.7266 0.80469-5 2.1055-1.2734-1.2969-3.043-2.1055-5-2.1055s-3.7266 0.80469-5 2.1055c-1.2734-1.2969-3.043-2.1055-5-2.1055s-3.7266 0.80469-5 2.1055c-1.2734-1.2969-3.043-2.1055-5-2.1055-3.8594 0-7 3.1406-7 7v1h-14v-20c0-3.3086-2.6914-6-6-6h-8c-3.3086 0-6 2.6914-6 6v6h-6c-3.3086 0-6 2.6914-6 6v32c0 3.3086 2.6914 6 6 6h6v6c0 3.3086 2.6914 6 6 6h8c3.3086 0 6-2.6914 6-6v-20h6v6.5352c0 2.6875 0.82422 5.2617 2.3867 7.4453l7.6133 10.656v11.359c0 1.1055 0.89453 2 2 2s2-0.89453 2-2v-12c0-0.41406-0.12891-0.82422-0.375-1.1641l-7.9844-11.18c-1.0742-1.5039-1.6406-3.2734-1.6406-5.125v-6.5352h6c1.1055 0 2-0.89453 2-2v-15c0-1.6562 1.3438-3 3-3s3 1.3438 3 3v3c0 1.1055 0.89453 2 2 2s2-0.89453 2-2v-3c0-1.6562 1.3438-3 3-3s3 1.3438 3 3v3c0 1.1055 0.89453 2 2 2s2-0.89453 2-2v-3c0-1.6562 1.3438-3 3-3s3 1.3438 3 3v3c0 1.1055 0.89453 2 2 2s2-0.89453 2-2v-3c0-1.6562 1.3438-3 3-3s3 1.3438 3 3v24.754l-3.9414 15.762c-0.039063 0.15625-0.058594 0.32031-0.058594 0.48438v12c0 1.1055 0.89453 2 2 2s2-0.89453 2-2v-11.754l3.9414-15.762c0.039063-0.15625 0.058594-0.32031 0.058594-0.48437v-8h6v20c0 3.3086 2.6914 6 6 6h8c3.3086 0 6-2.6914 6-6v-6h6c3.3086 0 6-2.6914 6-6v-32c0-3.3086-2.6914-6-6-6zm-116 40c-1.1016 0-2-0.89844-2-2v-32c0-1.1016 0.89844-2 2-2h6v36zm22 10c0 1.1016-0.89844 2-2 2h-8c-1.1016 0-2-0.89844-2-2v-56c0-1.1016 0.89844-2 2-2h8c1.1016 0 2 0.89844 2 2zm4-24v-8h14v8zm58 0v-8h6v8zm22 24c0 1.1016-0.89844 2-2 2h-8c-1.1016 0-2-0.89844-2-2v-56c0-1.1016 0.89844-2 2-2h8c1.1016 0 2 0.89844 2 2zm12-12c0 1.1016-0.89844 2-2 2h-6v-36h6c1.1016 0 2 0.89844 2 2zm-62-48v-16c0-1.1055 0.89453-2 2-2s2 0.89453 2 2v16c0 1.1055-0.89453 2-2 2s-2-0.89453-2-2zm-23.414-4.5859c-0.78125-0.78125-0.78125-2.0469 0-2.8281s2.0469-0.78125 2.8281 0l8 8c0.78125 0.78125 0.78125 2.0469 0 2.8281-0.39062 0.39063-0.90234 0.58594-1.4141 0.58594s-1.0234-0.19531-1.4141-0.58594zm40 8c-0.78125-0.78125-0.78125-2.0469 0-2.8281l8-8c0.78125-0.78125 2.0469-0.78125 2.8281 0s0.78125 2.0469 0 2.8281l-8 8c-0.39062 0.39063-0.90234 0.58594-1.4141 0.58594s-1.0234-0.19531-1.4141-0.58594z" fill="#fff"/>
</svg>
