<?xml version="1.0" encoding="UTF-8"?>
<svg width="128pt" height="128pt" version="1.1" viewBox="0 0 128 128" xmlns="http://www.w3.org/2000/svg">
 <path d="m91.801 56.191c-0.011719-3.7578-1.3086-7.3945-3.6719-10.316 0.80078-3.3398 0.55078-6.8438-0.71875-10.035-0.25-0.61328-0.76172-1.082-1.3945-1.2812-0.89453-0.30859-4.2891-0.88281-11.199 3.5977-2.9727-0.78516-6.0391-1.1562-9.1133-1.1016-3.0781-0.054688-6.1484 0.31641-9.1289 1.1016-7.0898-4.582-10.777-3.8398-11.52-3.6211-0.63672 0.20312-1.1484 0.68359-1.3945 1.3047-1.2695 3.1797-1.5312 6.6758-0.74219 10.008-2.4414 2.9062-3.7422 6.6016-3.6602 10.395 0 14.156 8.1016 18.434 15.527 19.945-0.38281 0.92969-0.64453 1.9062-0.78125 2.9023-0.015625 0.10938-0.015625 0.21484 0 0.32031v3.918c-6.7578 0.5625-8.2031-3.3906-8.3438-3.8398h-0.003906c-0.03125-0.10547-0.070312-0.20703-0.11328-0.30859-1.3047-2.6641-3.6055-4.707-6.4023-5.6953-1.1719-0.39062-2.4414 0.24219-2.832 1.4141-0.39453 1.1758 0.23828 2.4453 1.4141 2.8359 1.5469 0.55859 2.8398 1.6641 3.6328 3.1094 0.89453 2.9062 4.5586 7.5 12.621 6.9883v3.6875c0 1.2383 1.0039 2.2422 2.2422 2.2422 1.2344 0 2.2383-1.0039 2.2383-2.2422v-11.941c0.17188-1.3047 0.73828-2.5234 1.625-3.4961 0.63672-0.59375 0.86719-1.5039 0.59375-2.3281-0.27734-0.82812-1.0078-1.418-1.8711-1.5117-7.8086-0.91016-15.027-3.4805-15.027-16.09-0.10547-3.0742 1.082-6.0547 3.2773-8.2148 0.59375-0.64062 0.78906-1.5547 0.51172-2.3828-0.75391-2.1914-0.80469-4.5625-0.14062-6.7852 2.7461 0.62109 5.3281 1.832 7.5625 3.5469 0.58203 0.38672 1.3086 0.48438 1.9727 0.26953 2.8438-0.86719 5.8086-1.2695 8.7812-1.1914 2.9648-0.078125 5.9258 0.32422 8.7656 1.1914 0.66406 0.21875 1.3906 0.11719 1.9727-0.26953 2.1523-1.6484 4.6172-2.8477 7.2461-3.5195 0.65234 2.2461 0.59375 4.6367-0.16797 6.8477-0.25391 0.75-0.089844 1.582 0.43359 2.1758 2.1211 2.2617 3.3203 5.2344 3.3672 8.332 0 12.582-7.5898 15.195-15.027 16.09-0.91016 0.10156-1.668 0.75-1.9023 1.6367-0.23828 0.88672 0.089843 1.8281 0.82812 2.3711 0.79297 0.60156 1.7148 2.293 1.7148 5.1211v10.137c0 1.2383 1.0039 2.2383 2.2383 2.2383 1.2383 0 2.2422-1 2.2422-2.2383v-10.137c0.023437-1.7852-0.30469-3.5547-0.96094-5.2109 6.0156-1.2812 15.309-5.2344 15.309-19.969z" fill="#fff"/>
</svg>
