<?xml version="1.0" encoding="UTF-8"?>
<svg width="128pt" height="128pt" version="1.1" viewBox="0 0 128 128" xmlns="http://www.w3.org/2000/svg">
 <g>
  <path d="m115.28 47.785-48-37.336c-1.9336-1.5039-4.625-1.5039-6.5469 0l-20.734 16.125v-9.2383c0-0.73438-0.60156-1.3359-1.3359-1.3359h-18.664c-0.73438 0-1.3359 0.60156-1.3359 1.3359v25.84l-5.9453 4.625c-1.1211 0.87891-1.8398 2.1367-2.0156 3.5469-0.17578 1.4141 0.21484 2.8164 1.0781 3.9336 1.8008 2.3203 5.1602 2.7344 7.4805 0.93359l2.8945-2.2539 1.8398-1.4258v59.465h-2.6641c-0.73438 0-1.3359 0.60156-1.3359 1.3359v4c0 0.73437 0.60156 1.3359 1.3359 1.3359h85.336c0.73438 0 1.3359-0.60156 1.3359-1.3359v-4c0-0.73438-0.60156-1.3359-1.3359-1.3359h-2.6641l-0.003906-59.465 1.8242 1.4258 2.8945 2.2539c0.94531 0.73047 2.0781 1.1211 3.2812 1.1211 1.6562 0 3.1992-0.74609 4.2148-2.0547 0.87891-1.1211 1.2539-2.5195 1.0781-3.9336-0.17578-1.4258-0.89453-2.6797-2.0156-3.5586zm-93.945-29.121h16v1.3359h-16zm0 4h16v5.9844l-16 12.441zm84 92v1.3359h-82.672v-1.3359zm-33.336-25.328h-16c-2.1992 0-4 1.8008-4 4v18.664h-25.336v-61.535l37.336-29.039 37.336 29.039v61.535h-25.336v-18.664c0-2.1992-1.8008-4-4-4zm1.3359 4v18.664h-18.672v-18.664c0-0.73438 0.60156-1.3359 1.3359-1.3359h16c0.73438 0 1.3359 0.60156 1.3359 1.3359zm40.77-39.695c-0.87891 1.1211-2.6133 1.3438-3.7461 0.46484l-45.547-35.426c-0.23828-0.18359-0.53516-0.28125-0.81641-0.28125s-0.57422 0.09375-0.81641 0.28125l-45.547 35.426c-1.1602 0.90625-2.8398 0.69531-3.7461-0.46484-0.44141-0.55859-0.625-1.2656-0.54688-1.9766 0.09375-0.70312 0.44141-1.3359 1.0156-1.7734l48-37.336c0.96094-0.74609 2.3047-0.74609 3.2812 0l48 37.336c0.55859 0.44141 0.92188 1.0664 1.0156 1.7734 0.074218 0.71094-0.11328 1.4141-0.55469 1.9766z"/>
  <path d="m53.336 52h-21.328c-0.73437 0-1.3359 0.60156-1.3359 1.3359v21.328c0 0.73438 0.60156 1.3359 1.3359 1.3359h21.328c0.73437 0 1.3359-0.60156 1.3359-1.3359v-21.328c-0.003906-0.73438-0.60547-1.3359-1.3359-1.3359zm-12 21.336h-8v-8h8zm0-10.672h-8v-8h8zm10.664 10.672h-8v-8h8zm0-10.672h-8v-8h8z"/>
  <path d="m96 76c0.73438 0 1.3359-0.60156 1.3359-1.3359v-21.328c0-0.73438-0.60156-1.3359-1.3359-1.3359h-21.328c-0.73438 0-1.3359 0.60156-1.3359 1.3359v21.328c0 0.73438 0.60156 1.3359 1.3359 1.3359zm-9.3359-21.336h8v8h-8zm0 10.672h8v8h-8zm-2.6641 8h-8v-8h8zm0-10.672h-8v-8h8z"/>
 </g>
</svg>
