<?xml version="1.0" encoding="UTF-8"?>
<svg width="128pt" height="128pt" version="1.1" viewBox="0 0 128 128" xmlns="http://www.w3.org/2000/svg">
 <path d="m40.883 27.094c-0.39453-0.69922-0.15625-1.582 0.53516-1.9883 0.69531-0.39062 1.5742-0.15234 1.9727 0.53906 0.19531 0.32812 0.25 0.72266 0.15234 1.0938-0.097657 0.37109-0.33984 0.6875-0.67188 0.87891-0.22266 0.12891-0.47266 0.19922-0.72656 0.20312-0.51953 0-1-0.27734-1.2617-0.72656zm11.734-3.6562c0.12891 0 0.25391-0.015625 0.37891-0.042969 0.76172-0.1875 1.2461-0.93359 1.1094-1.707-0.14062-0.77344-0.85547-1.3047-1.6328-1.2148-0.78125 0.085938-1.3594 0.76562-1.3203 1.5508 0.039062 0.78516 0.67969 1.4023 1.4648 1.4141zm-19.465 11.316c0.58984 0.003906 1.1211-0.35156 1.3477-0.89453s0.10156-1.1719-0.31641-1.5859c-0.57031-0.55859-1.4844-0.55469-2.0469 0.011718s-0.5625 1.4805 0 2.0469c0.26562 0.27344 0.63281 0.42578 1.0156 0.42188zm-11.59 19.477c0.12109 0.03125 0.25 0.046875 0.375 0.046875 0.65625 0 1.2266-0.44141 1.3945-1.0742 0.14844-0.56641-0.054687-1.168-0.51953-1.5234-0.46875-0.35547-1.1016-0.39453-1.6094-0.097657-0.50391 0.29297-0.78516 0.86328-0.70703 1.4414 0.078125 0.58203 0.5 1.0586 1.0664 1.207zm-1.0742 11.301c0.58594 0 1.1133-0.35156 1.3398-0.89453 0.22266-0.54297 0.097656-1.1641-0.31641-1.5781-0.41406-0.41406-1.0352-0.53906-1.5781-0.31641-0.54297 0.22656-0.89453 0.75391-0.89453 1.3398-0.003906 0.38672 0.14453 0.75781 0.41797 1.0312 0.27344 0.26953 0.64453 0.42188 1.0312 0.41797zm5.0469-21.945c0.69922 0.39453 1.582 0.15234 1.9883-0.53906 0.39062-0.69531 0.14844-1.5781-0.54297-1.9727-0.69531-0.39844-1.5781-0.16406-1.9805 0.52344-0.39453 0.69922-0.15625 1.5859 0.53516 1.9883zm38.336-21.656h0.003906c0.38281 0.003906 0.75391-0.14844 1.0273-0.42188 0.27344-0.27344 0.42578-0.64453 0.42578-1.0273 0-0.38672-0.15234-0.75781-0.42578-1.0273-0.27344-0.27344-0.64453-0.42578-1.0273-0.42578-0.80078 0.003906-1.4492 0.65234-1.4492 1.4531s0.64844 1.4492 1.4492 1.4492zm11.055 82.711h0.003907c-0.70703 0.18359-1.1641 0.86328-1.0703 1.5859 0.097656 0.72266 0.71484 1.2617 1.4453 1.2539 0.125 0 0.25391-0.011719 0.375-0.042969 0.375-0.097656 0.69531-0.33984 0.88672-0.67188 0.19531-0.33594 0.24609-0.73438 0.14453-1.1055-0.097657-0.37109-0.34375-0.69141-0.67969-0.88281-0.33203-0.19141-0.73047-0.23828-1.1016-0.13672zm28.035-18.176c-0.003907 0.003906-0.007813 0.007812-0.011719 0.011718v0.003907zm-0.53516-1.9727h0.003907c-0.69141-0.40234-1.582-0.16797-1.9883 0.52344v0.011719c-0.39453 0.69531-0.15234 1.5781 0.53906 1.9727 0.21875 0.12891 0.46875 0.19922 0.72266 0.20312 0.65625-0.003906 1.2266-0.44531 1.3945-1.0781 0.17188-0.63281-0.10156-1.3008-0.66797-1.6328zm-38.379 21.57c-0.58594 0-1.1133 0.35547-1.3359 0.89453-0.22656 0.54297-0.10156 1.168 0.3125 1.582 0.41797 0.41406 1.0391 0.53516 1.582 0.3125 0.54297-0.22656 0.89453-0.75391 0.89453-1.3398-0.003906-0.80078-0.65234-1.4492-1.4531-1.4492zm42.371-32.203c-0.37109-0.10156-0.76562-0.046875-1.0977 0.14453-0.33203 0.19531-0.57422 0.51172-0.67187 0.88281-0.10156 0.37109-0.046876 0.76953 0.14844 1.1016 0.19141 0.33203 0.50781 0.57031 0.88281 0.67188 0.11719 0.027344 0.23828 0.042969 0.36328 0.042969 0.72656 0.003906 1.3477-0.53516 1.4414-1.2578 0.097656-0.72266-0.35938-1.4023-1.0664-1.5859zm1.1055-11.488c-0.38672-0.003906-0.75781 0.14844-1.0312 0.42188-0.26953 0.27344-0.42188 0.64062-0.42188 1.0273v0.17578c0 0.38281 0.15234 0.75391 0.42188 1.0273 0.27344 0.27344 0.64453 0.42578 1.0273 0.42578 0.38672 0 0.75781-0.15234 1.0273-0.42578 0.27344-0.27344 0.42578-0.64453 0.42578-1.0273v-0.17578c0-0.38281-0.15234-0.75391-0.42578-1.0273-0.26953-0.27344-0.64062-0.42578-1.0234-0.42188zm-13.754 31.363c-0.27344 0.26953-0.42578 0.63672-0.42578 1.0195 0 0.38281 0.15234 0.75 0.42578 1.0234 0.26562 0.27344 0.63281 0.42578 1.0156 0.42188 0.48047 0 0.93359-0.23828 1.207-0.63672 0.26953-0.40234 0.32031-0.91016 0.13672-1.3594-0.18359-0.44531-0.58203-0.77344-1.0547-0.86719-0.47266-0.09375-0.96484 0.054687-1.3047 0.39844zm-8.7031 6.6836c-0.57422 0.32422-0.85547 0.99609-0.68359 1.6367 0.17188 0.63672 0.75 1.0781 1.4102 1.0742 0.25391-0.003906 0.50391-0.070312 0.72266-0.19922 0.33203-0.19141 0.57812-0.50781 0.67578-0.87891 0.097656-0.37109 0.042969-0.76562-0.15234-1.0977-0.39844-0.6875-1.2812-0.92969-1.9727-0.53516zm9.0156-36.98v-0.003906c-3.2109 3.2031-7.375 5.2734-11.863 5.8984s-9.0586-0.22656-13.02-2.4297l-2.2891 2.2891c2.207 3.9609 3.0586 8.5312 2.4336 13.023-0.625 4.4883-2.6992 8.6523-5.9023 11.859l-11.688 11.691h-0.003906c-5.2734 5.2539-12.949 7.3008-20.141 5.3711-7.1914-1.9336-12.809-7.5508-14.742-14.742-1.9297-7.1914 0.11719-14.867 5.375-20.141l11.688-11.691c3.2109-3.1953 7.3711-5.2617 11.859-5.8828 4.4844-0.625 9.0508 0.22656 13.012 2.4297l2.2891-2.2891v-0.003906c-2.1953-3.9648-3.043-8.5352-2.4141-13.023 0.62891-4.4922 2.6953-8.6523 5.8945-11.867l11.691-11.688c5.2734-5.2617 12.949-7.3125 20.145-5.3789 7.1914 1.9297 12.812 7.5508 14.742 14.742 1.9297 7.1953-0.12109 14.871-5.3789 20.145zm-27.438 15.883c-0.003906-2.7656-0.65234-5.4961-1.8945-7.9648l-4.3281 4.3281h-0.003906c1.3633 4.3555 0.19922 9.1094-3.0234 12.348l-11.688 11.688c-4.8125 4.8125-12.609 4.8125-17.422 0.003906-4.8086-4.8125-4.8086-12.609 0-17.422l11.691-11.691c2.3047-2.3164 5.4414-3.6133 8.707-3.6016 1.2344 0.003907 2.4609 0.20313 3.6328 0.58203l4.3164-4.3164h0.003907c-3.3555-1.6953-7.1602-2.2812-10.871-1.6836-3.7109 0.60156-7.1328 2.3594-9.7852 5.0234l-11.688 11.691c-4.5352 4.543-6.3008 11.152-4.6406 17.352 1.6641 6.1953 6.5039 11.035 12.699 12.699 6.1953 1.6602 12.809-0.10938 17.348-4.6406l11.691-11.691c3.3789-3.3633 5.2695-7.9375 5.2539-12.703zm-24.918 1.2344c-0.003906-1.5195 0.60156-2.9766 1.6758-4.0469l6.4883-6.4883c-0.39844-0.0625-0.80078-0.10156-1.207-0.11328-2.4961-0.007812-4.8945 0.98438-6.6562 2.7539l-11.691 11.691c-3.6758 3.6797-3.6758 9.6406 0 13.32 3.6797 3.6758 9.6406 3.6758 13.32-0.003906l11.688-11.691c2.0664-2.0664 3.0508-4.9805 2.6602-7.875l-6.5039 6.5039 0.003906-0.003907c-1.6406 1.6406-4.1016 2.1289-6.2422 1.2422s-3.5352-2.9727-3.5352-5.2891zm40.828-31.109c1.0977-1.1055 1.0977-2.8906-0.003907-3.9922-1.1016-1.1016-2.8867-1.1016-3.9922-0.003906l-33.105 33.105c-1.1016 1.1055-1.0977 2.8906 0.003906 3.9961 1.1172 1.0664 2.875 1.0664 3.9961 0zm3.7266-2c0.003906 1.5195-0.59766 2.9805-1.6758 4.0508l-6.4766 6.4727v0.003906c0.39453 0.0625 0.79297 0.097656 1.1953 0.10547 2.4961 0.011719 4.8945-0.97266 6.6602-2.7383l11.688-11.691c3.668-3.6758 3.6641-9.6328-0.007813-13.305-3.6758-3.6719-9.6289-3.6797-13.309-0.011719l-11.688 11.691c-1.7695 1.7656-2.7539 4.1602-2.7422 6.6562 0.007813 0.40234 0.042969 0.80078 0.10938 1.1914l6.4727-6.4727c1.6367-1.6367 4.0977-2.1289 6.2383-1.2422s3.5352 2.9727 3.5352 5.2891zm5.7461 13.938 11.691-11.688c4.5391-4.5391 6.3086-11.152 4.6484-17.352-1.6602-6.1992-6.5039-11.043-12.703-12.707-6.1992-1.6602-12.812 0.11328-17.352 4.6523l-11.691 11.688c-2.6602 2.6562-4.4141 6.082-5.0156 9.7891-0.60156 3.707-0.019531 7.5117 1.668 10.871l4.3164-4.3164v-0.003906c-0.37109-1.1758-0.5625-2.4023-0.56641-3.6367-0.015626-3.2656 1.2812-6.4023 3.5938-8.707l11.688-11.691c4.8125-4.793 12.598-4.7852 17.398 0.019531 4.8047 4.8008 4.8125 12.586 0.019531 17.398l-11.688 11.691c-2.3086 2.3125-5.4453 3.6016-8.7109 3.5898-1.2383 0-2.4688-0.1875-3.6523-0.55078l-4.3203 4.3203c3.3672 1.6758 7.1719 2.2539 10.883 1.6484 3.707-0.60547 7.1328-2.3594 9.793-5.0156z"/>
</svg>
