<?xml version="1.0" encoding="UTF-8"?>
<svg width="128pt" height="128pt" version="1.1" viewBox="0 0 128 128" xmlns="http://www.w3.org/2000/svg">
 <g>
  <path d="m120.95 39.508c-0.17578-0.22656-0.37109-0.43359-0.59375-0.62109-2.543-2.1797-7.1016-0.98047-9.7617 0.19922l0.003906 0.003906c-0.49609 0.23047-0.92969 0.57422-1.2656 1.0039-0.19922-0.007812-0.39844-0.007812-0.60156 0.007812-0.56641 0.027344-1.0625 0.4375-1.5859 0.4375-0.65625-0.066406-1.293-0.27344-1.8633-0.60547-0.625-0.22656-1.2891-0.3125-1.9492-0.25391h-0.023438c-0.86328-1.3672-2.2578-2.3164-3.8477-2.6133-1.0078-0.10156-2.8984-0.47656-3.8242 0.050782-1.0508 0.60547-3.4258-0.69141-4.625-0.95313-2.9297-0.65234-5.7109 0.78516-8.5273 1.4883v0.003906c-3.7148 0.92578-7.207 2.5703-10.289 4.8438-0.019531 0.015625-0.039063 0.03125-0.058594 0.050781-0.98438-0.33203-2.0469-0.34766-3.043-0.042969-0.14844 0.046876-0.28125 0.125-0.39453 0.23047-3.1328 0.72656-6.1055 2.0312-8.7617 3.8477-1.1445 0.66797-2.0938 1.6289-2.7539 2.7773-0.94922 1.8516-3.3867 3.3672-5.3984 4.0078-0.38672 0.10547-0.66016 0.44922-0.67969 0.85156-1.2305 0.66406-2.6523 0.88281-3.8984 1.5156-1.6914 0.85938-2.9414 2.3398-4.4766 3.4492-1.2695 1.1211-2.7188 2.0234-4.2852 2.6719-1.8906 0.58594-4.2695 0.085937-6.2305 0.25-3.2891 0.27734-7.2812 1.8594-10.328 3.0859-3.3086 1.3359-6.6758 4.2891-10.277 4.6992h-0.011719c-1.2383-0.5-2.625-0.48438-3.8438 0.050781-1.5117 0.5-3.4141 1.9141-3.7422 3.5625-0.09375 0.41406 0.09375 0.83594 0.46484 1.0469 0.11328 0.70703 0.44531 1.3633 0.94531 1.875 1.0508 0.8125 1.9531 1.7969 2.6758 2.9141 0.78516 1.0664 0.046876 2.2656 0.4375 3.3984 0.53125 1.1211 1.2305 2.1523 2.0703 3.0625 1.3086 1.7617 4.1484 1.1992 6.0234 1.168 1.8789-0.03125 3.5078-0.8125 3.5859-2.7812h0.003906c0.027344-0.27734-0.085937-0.54688-0.30078-0.72656-0.011719-0.023438-0.027344-0.058594-0.039063-0.082032-0.25391-0.59766-0.85156-0.97266-1.5-0.9375-2.3945 0.14844-2.0078-1.6758-1.6328-3.1523 0.19922-0.8125 1.1562-1.8398 1.1094-2.625v-0.003907c-0.019531-0.39062-0.17969-0.76562-0.44922-1.0508 2.7422-1.0586 5.9805-1.0859 8.7734-1.8984 2.832-0.82422 5.3672-2.0898 8.3164-2.5547h-0.003906c0.046875 0.007813 0.09375 0.015625 0.13672 0.019532 2.6055 0.17578 5.2305 0.10937 7.8438 0.10937 2.0703 0 4.1016-1.3008 6.1484-1.6445 2.418-0.3125 4.7812-0.95703 7.0195-1.918 1.5781-0.80469 3.1914-1.4336 4.7656-2.1523 0.17188-0.007813 0.33984-0.042969 0.5-0.10156 1.9297-0.74219 3.832-1.7109 5.7656-2.4844h0.003907c0.45703 0.49609 0.82812 1.0664 1.0977 1.6836 0.24219 0.94141 0.69922 1.8164 1.3359 2.5508 0.12891 0.50781 0.64453 0.82031 1.1562 0.69922 0.17969-0.046875 0.35547-0.10156 0.52734-0.16016 0.80078 0.94531 1.7891 1.7188 2.9023 2.2695-1.7227 0.11719-3.4375 0.089844-5.1602 0.34766-2.6133 0.39844-5.1289 0.71094-7.7227 0.91406v0.003906c-0.66797-1.0156-1.8516-1.5586-3.0508-1.4023-0.63281 0.054688-1.2266 0.31641-1.6914 0.74219-0.89844 0.92188-2.1523 0.91016-3.3008 1.2891-1.4453 0.47656-1.207 1.6445-1.0469 2.9102 0.25781 2.1016 0.34766 4.9297 1.3086 6.832 1.0469 2.0469 1.793 4.6719 3.2852 6.3984 1.1016 1.2812 4.168 0.64453 5.5859 0.68359 2.3594 0.070312 5.6055-3.5664 2.4453-4.1914-0.10156-0.0625-0.21094-0.10156-0.32812-0.12109-1.8633-0.30859-1.8008-3.3555-0.64453-4.3594v-0.003906c0.77344-0.56641 1.2695-1.4336 1.3672-2.3867 0-0.019531 0-0.039062 0.007812-0.058594 2.3164-0.039062 4.6289 0.085938 6.9258 0.38281 2.7227 0.52344 5.4141 1.1875 8.0664 1.9922 2.3477 0.57812 5.3398 0.14844 7.7266 0.027344 1.9531 0.007812 3.8555-0.625 5.4141-1.8008 0.44531 2.418 1.5352 4.7344 1.8828 7.1875 0.16016 1.1562 0.25391 3.8984 1.4062 4.5781 1.7148 0.89844 3.6719 1.2227 5.5859 0.92969 2.8984-0.72266 6.2305-0.61719 9.207-0.71484 0.27734-0.007813 0.53906-0.13672 0.71875-0.35156 0.17578-0.21484 0.25-0.49609 0.20312-0.77344 0.17188-0.23438 0.20703-0.54297 0.09375-0.8125-0.11328-0.26953-0.35938-0.46094-0.64844-0.50391-2.0508-0.31641-4.0898-0.69922-6.1289-1.0781-0.28516-0.050781-0.56641-0.11719-0.84375-0.19922 0.35547-0.13672 0.71094-0.25781 1.0703-0.39453 0.70312-0.10938 1.418-0.15234 2.1289-0.13281 0.90625 0 1.793-0.22656 2.5859-0.66406 0.21094-0.21484 0.3125-0.51172 0.27344-0.80859-0.039063-0.29688-0.21484-0.55859-0.47266-0.71094-1.2695-0.55469-2.6641-0.30078-4.0078-0.66406-0.69922-0.125-1.4141-0.16016-2.1211-0.097657-0.35937 0.007813-2.7852-0.73047-2.9922-1.3398-0.054687-0.16797-0.15234-0.31641-0.28516-0.43359 0.25781-1.6289 0.80078-3.1953 1.6055-4.6328 0.95312-1.8125 1.0508-3.832 1.9414-5.7109 1.3555-2.8438-0.5-6.0117-0.54297-8.9688-0.019531-1.3789 0.63281-3.8828-0.23047-5.1406 0-0.007813-0.007812-0.007813-0.011718-0.011719 1.0664-1.4258 2.5742-4.0391 1.8984-5.6562 0.1875 0.019531 0.375 0.027344 0.5625 0.03125 0.15625 1.1758 0.72656 2.2539 1.6055 3.0469 0.38672 0.31641 0.89062 0.45703 1.3867 0.38672 0.84375-0.32812 1.7422-0.49609 2.6445-0.5 0.15625 0.019531 1.4062-0.039063 1.2539-0.23047v-0.003906c0.34766 0.47266 0.91406 0.72656 1.5 0.67188 0.94141-0.046875 1.5-0.94922 1.9219-1.7422 0.56641 0.0625 1.1367 0.042969 1.6992-0.050781 0.51562-0.089844 0.91016-0.98828 1.2656-1.0117 0.33594 0.003906 0.66797-0.039062 0.99219-0.125 0.8125 0.82812 2.1016 0.95312 3.0586 0.30078 1.2852-0.88281 0.87109-3.207 0.78516-4.4727-0.13281-1.8086 0.39844-8.3984-2.9258-7.918zm-102.75 44.859 0.03125 0.03125c-0.44922 1.0391-3.9297 0.65234-4.6836 0.66406-2.1406 0.050781-3.1797-2.9688-3.1172-4.5273 0.058594-1.3828-0.51172-2.0898-1.207-3.2852-0.80859-1.3672-2.4336-1.8398-2.9141-3.3164l0.003906 0.003906c-0.050781-0.15234-0.13281-0.28906-0.24609-0.40234 0.85938-1.293 2.293-2.0898 3.8438-2.1367 0.003906 0.050781 0.011719 0.10156 0.019531 0.14844 0.55078 1.9648 2.0586 3.5156 4.0078 4.1172 1.0078 0.35547 0.98047-0.34766 1.4648 0.625 0.32422 0.64453 0.33594 0.14063-0.10938 1.1758-0.66406 1.375-0.94141 2.9023-0.81641 4.4258 0.25391 0.79688 0.78125 1.4766 1.4922 1.9141 0.71484 0.29297 1.4648 0.48047 2.2305 0.5625zm38.164-19.289c-2.3516 1.2305-4.8711 2.1016-7.4805 2.5859-2.1055 0.6875-4.2461 1.25-6.4141 1.6914-2.6133 0.20312-5.2383 0.16406-7.8438-0.10938-0.10547-0.007813-0.21094 0.003906-0.30859 0.03125-0.089844-0.011719-0.18359-0.011719-0.27344 0-3.375 0.52344-6.2383 1.9414-9.4766 2.8906-2.7461 0.80078-5.6992 0.77344-8.3477 1.8633-0.019531-0.007812-0.03125-0.019531-0.046874-0.019531-1.5391-0.38672-3.3086-0.65625-4.0781-2.1211h0.003907c0.10938-0.050781 0.21094-0.11328 0.30078-0.19141 3.2656-0.65625 6-2.9922 9.0234-4.2305 3.7852-1.5547 8.3672-3.3164 12.484-3.5352 3.2266-0.17578 5.6914 0.16016 8.3398-1.9531 1.5664-1.2578 3.168-2.3477 4.625-3.7344 1.082-1.0312 2.7734-1.3672 4.2305-1.9141l0.003906-0.007812c0.78906 1.6016 1.9258 3.0039 3.3281 4.1094 1.3945 1.2852 4.1211 1.7227 4.5117 3.6133h-0.003906c-0.89844 0.23828-1.7617 0.58594-2.5781 1.0312zm6.168-2.4141c-0.57031 0.18359-1.1328 0.39453-1.6836 0.64063-0.035157-0.11719-0.078125-0.22656-0.13281-0.33594 0.007813-0.26562-0.054687-0.53125-0.17578-0.76562-0.53516-1.1797-1.4219-1.3945-2.582-1.793v-0.003906c-2.3984-0.97656-4.2891-2.9023-5.2188-5.3203 2.0078-0.71484 5.4492-2.457 6.0391-4.3984 0.4375-1.4453 2.0273-2.5547 3.5234-3.4062v-0.003906c-1.3086 2.3047-1.7695 4.9961-1.3008 7.6016 0.16016 1.3359 0.5625 2.6328 1.1914 3.8203 0.70703 1.1523 1.6211 2.1641 2.6992 2.9805-0.76172 0.38672-1.5508 0.71484-2.3594 0.98437zm7.8906 3.1875c-0.046876-0.046874-0.097657-0.089843-0.15625-0.12891-0.76953-0.55469-1.1367-2.9414-1.6523-3.9414-0.3125-0.55078-0.82031-0.96484-1.4219-1.168-1.0938-0.59766-2.0625-1.4023-2.8516-2.3711-3.4258-3.3008-1.3086-10.465 2.168-12.672 0.14844-0.09375 0.26953-0.22656 0.34766-0.38672 1.1836-0.36328 2.3906-0.63281 3.6133-0.80469 0.16406-0.023437 0.32031-0.09375 0.44531-0.20312 3.1914 0.066407 4.9414 4.3828 6.3789 7.3477-0.89062-0.36328-1.8203-0.64063-2.7656-0.81641-1.6602-0.24609-3.3516-0.21484-5 0.082031-1.2266 0.21875-0.71094 2.082 0.51562 1.8633 1.7383-0.34766 3.5391-0.26953 5.2461 0.22656 1.2148 0.45312 2.4609 0.82422 3.7266 1.1094 0.10156 0.058594 0.1875 0.11719 0.27734 0.17969 0.85156 0.57422 0.53516 1.5742 1.0508 2.2852 0.85156 1.0977 1.8633 2.0625 2.9961 2.8633-2.1016 0.85938-4.1367 1.8516-6.25 2.6992-2.3398 0.94922-4.3086 3.0234-6.668 3.8359zm19.723-10.348c0.41016 0.27734 0.84375 0.51562 1.2969 0.71094 0.21875 0.10938 0.46875 0.12891 0.70312 0.058594-0.17188 1.0039-0.12109 2.0352 0.14844 3.0195 0.73047 1.5625 1.0586 3.2852 0.96094 5.0078-0.10156 1.1953-0.16016 2.3867-0.23047 3.582-1.6992-3.2578-3.793-7.0312-7.0898-8.4883l-0.003906-0.003906c-0.035156-0.17188-0.12109-0.32812-0.23828-0.45703-0.0625-0.21094-0.19141-0.39062-0.36719-0.52344-0.97656-0.67188-1.8789-1.4375-2.6992-2.2891 0.39844 0.15625 0.8125 0.26953 1.2383 0.33594 0.84375 0.15234 1.7148 0.070313 2.5156-0.23438 0.41406 0.19922 0.85938 0.31641 1.3164 0.34766 0.62109 0.019532 1.2383-0.10547 1.8008-0.36719 0.24609-0.097656 0.89453-0.51562 0.64844-0.69922zm2.2812-0.96094c-0.003906 0-0.003906 0-0.003906-0.003907-1.0117-0.47656-2.2773-1.6836-3.3359-0.57422-0.30078 0.32031-0.56641 0.625-0.84766 0.65625-0.17969 0.015625-0.35938 0.019531-0.53906 0.015625-0.03125 0-0.058593-0.011719-0.089843-0.011719l-0.003907-0.003906c-0.10156-0.37109-0.41016-0.64453-0.78906-0.70703-0.37891-0.0625-0.76172 0.097657-0.97656 0.41797-1.2656 0.75-2.8398-0.16797-4.2266-0.47656-0.027344-0.0625-0.0625-0.12109-0.10156-0.1875h0.003907c1.875-0.71875 3.2305-2.375 3.5664-4.3555 0.85938 0.089844 1.6914 0.36719 2.4336 0.8125 1.6758 1.1523 3.7031 1.6758 5.7305 1.4766-0.33203 0.96094-0.60547 1.9453-0.82031 2.9414zm-29.707 23.367c-0.1875 0.76953-1.2773 0.85938-1.5 1.6133-0.37109 1.0781-0.55859 2.207-0.55469 3.3477 0.011719 1.6758 1.1953 3.1094 2.8398 3.4375 0.070312 0.007812 0.13672 0.011718 0.19922 0.011718 0.11719 0.070313 0.24609 0.11328 0.37891 0.12891-2.5625-0.34375-5.7344 1.9492-7.3086-1.7227-1.0117-2.3594-2.1367-4.1016-2.5664-6.6758-0.027344-0.83594-0.11719-1.6719-0.26562-2.5-0.5625-1.6992-0.83203-1.7539 0.30078-2.0391 1.3438-0.48828 2.7227-0.86719 4.1289-1.1328-0.50781 0.78516-0.57422 1.7734-0.17969 2.6211 0.41797 0.625 1.0117 1.1133 1.7109 1.3945 0.88281 0.44531 3.082 0.45312 2.8164 1.5156zm30.398-2.7656c-1.1992 2.6172-4.3594 2.8906-6.8125 3.0117-1.9219 0.10156-3.8594 0.011719-5.7812 0.011719-1.8594 0-3.7266-1.2148-5.5469-1.5742-3.5547-0.67188-7.168-0.97266-10.785-0.89453-0.10547 0-0.21484 0.019531-0.31641 0.054687-0.007812-0.011718-0.019531-0.019531-0.027343-0.027344-0.47266-0.34375-4.8438-1.2891-3.9219-2.418 2.4688-0.17578 4.7344-0.41406 7.2109-0.76172 3.0273-0.42578 6.0391-0.35938 9.0312-0.85938h0.003907c0.24219-0.03125 0.46094-0.17188 0.58594-0.37891 0.0625 0.019531 0.12891 0.039062 0.1875 0.058594 1.7422 0.5 3.6562-0.11719 5.4844 0.43359v-0.003906c1.6133 0.55078 3.082 1.457 4.3008 2.6523 0.85938 0.91016 2.2266-0.46484 1.3672-1.3672-1.7266-1.6445-3.8398-2.8281-6.1406-3.4453-1.3398-0.24609-2.707-0.30469-4.0586-0.17578-1.9414-0.34375-3.7461-1.2148-5.2266-2.5156 1.4766-0.82031 2.8711-1.9141 4.2891-2.7109v0.003906c2.457-1.3125 5.0117-2.4375 7.6406-3.3633 0.089844 0.074219 0.19141 0.12891 0.29688 0.16797 3.3789 1.1914 5.6758 6.3984 7.2695 9.3906 0.76953 1.4375 1.7148 3.0391 0.95703 4.7109zm9.793 9.7227c0.058593 0.011718 0.11719 0.019531 0.17578 0.03125-0.14844 0.0625-0.30078 0.12891-0.45312 0.1875-0.24219 0.09375-0.4375 0.28125-0.53906 0.51953-0.74219-0.29297-1.3047-0.91016-1.5234-1.6758 0.74219 0.40234 1.5273 0.71875 2.3477 0.93359zm16.109-35.398v0.34766-0.003906c-0.23047-0.007812-0.46094 0.015625-0.68359 0.070312-0.39453 0.13672-0.73438 0.39844-0.96875 0.74219-0.12891 0.14062-0.15234 0.23828-0.31641 0.23828-0.37109 0.03125-0.74219 0.007813-1.1094-0.070312-0.26172-0.097657-0.55859-0.058594-0.78516 0.10938-0.22266 0.074218-0.41016 0.23047-0.52344 0.4375-0.28516 0.52734-0.39844 1.4336-0.84375 0.88281v0.003906c-0.51953-0.40625-1.2305-0.46875-1.8125-0.15625-0.67578 0.4375-2.0391-0.10156-2.8906 0.22656-0.20703 0.078125-0.55469 0.45703-0.78125 0.14844-0.33203-0.51562-0.5625-1.0898-0.68359-1.6914 0-0.011718-0.007812-0.027344-0.007812-0.039062 0.24609-0.17578 0.45703-0.38672 0.72266-0.5625 0.36719-0.23828 0.80078-0.35938 1.1758-0.60547 1.0391-0.67969 0.070313-2.3555-0.98047-1.6719v0.003906c-0.55859 0.24609-1.0938 0.54688-1.5938 0.89844-0.33594 0.32422-0.79687 0.48828-1.2656 0.45312 0.050781-0.085938 0.089843-0.17578 0.125-0.26562 0.31641-0.95312-1.1797-2.4492-0.88281-2.9922 0.60156-1.0898-1.0703-2.0703-1.6719-0.97266v-0.003906c-0.33984 0.54297-0.45312 1.1953-0.31641 1.8203 0.09375 0.30859 0.25781 0.59375 0.47656 0.83203 0.80469 0.89062-0.27734 1.3281-0.59375 1.8633-0.35547 0.60547 0 1.3438 0.27734 1.8828 0.43359 0.83984-0.30078 2.5742-0.98828 3.7109-0.94141-1.1953-1.6016-2.5859-1.9258-4.0703-0.24609-1.2266-2.1172-0.69922-1.8633 0.51562h-0.003906c0.27344 1.7617 0.98828 3.4219 2.0781 4.832 1.9492 2.5078 0.78516 4.9336 1.3594 7.8516 0.41797 2.1211 1.3164 4.1875 0.20703 6.2422-1.1406 2.1094-1.1484 4.543-2.3008 6.6758-0.80859 1.4922-2.3945 7.7812-0.78125 9.0898l0.003906 0.003906c1.9492 1.3789 4.2031 2.2656 6.5703 2.5859-2.4414 0.41797-4.9453 0.31641-7.3477-0.30078-1.0469-0.34766-1.2188-2.457-1.4766-3.625-0.60156-2.6914-1.9297-5.5781-2.0078-8.3477l-0.019532-0.14844h0.003906c0.84375-1.5977 0.87891-3.5039 0.089844-5.1289 0.15234-0.17578 0.24219-0.39844 0.25-0.63281 0.03125-0.40234-0.003906-0.80469-0.10938-1.1914 0.13672-1.4531 0.32422-2.8242 0.32812-4.2891 0.007813-1.3008 0.75-2.5 0.38672-3.8047l0.003906-0.003906c-0.14844-0.39453-0.37109-0.75781-0.65234-1.0703-1.0703-1.6133-0.77344-2.8633-0.52734-4.543h-0.003906c0.17969-1.543 0.54297-3.0586 1.0781-4.5156 0.082032-0.17969 0.097657-0.38281 0.042969-0.57422 0.17188-0.51562-0.097656-1.0781-0.60938-1.2617-0.60156-0.21875-0.51562-1.1016-0.5-1.6055 0.039063-0.99219 1.0078-1.6328 1.8008-2 1.1367-0.52344 0.14844-2.1875-0.97266-1.6719h-0.003906c-1.5352 0.60937-2.6016 2.0273-2.7617 3.668-0.0625 0.65234 0.03125 1.3125 0.27734 1.918-1.9102 0.14062-3.5234-1.0664-5.25-1.9375-0.51953-0.25781-1.0898-0.40625-1.6719-0.4375-1.2695-0.25391-2.4648-0.80078-3.4883-1.5977-1.0664-0.65234-2.0391 1.0195-0.97266 1.6719 0.67578 0.42188 1.2578 0.84766 1.8984 1.207 0 0.03125-0.011719 0.070313-0.011719 0.10938-0.066406 1.4102-1.4141 3.2109-2.8984 3.2266l-0.003907-0.003906c-0.0625 0-0.125 0.007813-0.1875 0.019532-0.96875-1.4531-1.8477-2.9688-2.6289-4.5273-0.84766-1.5352-2.0156-2.8633-3.4258-3.9023 1.9805-1.4375 4.125-2.6289 6.3906-3.5547 2.4375-0.87891 5.1602-1.0508 7.6367-1.9297 2.5547-0.91016 4.457 1.5 6.6914 1.5 0.74609 0 1.3867-0.62109 2.1367-0.65625 2.6133-0.12891 5.2461 1.25 5.6758 4.0586 0.19141 1.2305 2.0586 0.71094 1.8711-0.51562-0.039063-0.22656-0.089844-0.44531-0.15625-0.66406 0.66797 0.30469 1.3633 0.53906 2.0781 0.69922 0.53906 0.09375 1.0898 0.050781 1.6094-0.125 0.13672-0.0625 0.25781-0.11719 0.37891-0.16797v0.003907c-0.20312 1.0234 0.23828 2.0703 1.1172 2.6367 0.8125 0.52734 2.0586 1.6992 3.1289 1.0781 0.39062-0.28906 0.89453-0.38672 1.3672-0.27344 1.0508 0.1875 0.76172 0.24609 0.42578 0.98828-0.26172 0.46094-0.10547 1.0469 0.34766 1.3242 0.64062 0.42578 1.3125 0.80859 2.0039 1.1445 0.75391 0.17969 1.543 0.12891 2.2656-0.14453 0 0.17188-0.015625 0.35156-0.015625 0.52734zm0.12891-5.2188v-0.003906c-0.34766 0.85938-0.44922 1.8047-0.28906 2.7227-0.40234 0.12891-0.81641 0.21094-1.2383 0.23828-0.41797-0.019531-0.81641-0.17969-1.1289-0.46094 0.47266-1.0117 0.74609-1.9414-0.69141-2.5664-0.74219-0.33203-1.5469-0.50781-2.3594-0.52344-0.57031 0.054688-1.1367 0.14844-1.6914 0.28516-1.0273-0.80078-1.3438-1.4727-1.1992-2.0312 0.10156-0.125 0.17188-0.27344 0.20703-0.43359 0.94141-1.2695 4.4062-1.7852 6.0117-1.7148 2.6484 0.10547 3.8477 2.3008 2.3828 4.4805zm1.8438 5.6133c0-0.007812-0.007812-0.007812-0.011719-0.011719v-0.007812c-0.015625-0.54297 0-1.0859 0.046875-1.625 0.015625-0.097656 0.019532-0.19922 0.003906-0.30078 0.046876-0.29297-0.023437-0.58984-0.19922-0.83203 0.14062-1.4141 0.40234-2.8125 0.78125-4.1797 0.15625 1.2695 0.12891 2.9609 0.14844 3.2305 0.035157 0.3125 0.71484 5.375-0.76172 3.7188z"/>
  <path d="m97.938 65.426c-0.27734-0.44531-0.85938-0.59375-1.3125-0.32812-0.45703 0.26172-0.61719 0.84375-0.36328 1.3047 0.10938 0.21484 0.21875 0.43359 0.32031 0.64453 0.26953 0.46484 0.86328 0.62109 1.3281 0.35156 0.46094-0.26953 0.61719-0.86328 0.35156-1.3281-0.11328-0.21875-0.22266-0.42969-0.32422-0.64453z"/>
  <path d="m66.668 51.938c-0.63672-0.097656-1.2891-0.015625-1.8828 0.23828-0.44141 0.26172-0.60547 0.82422-0.36719 1.2812s0.78906 0.64844 1.2578 0.4375c0 0.007813 0.046875-0.019531 0.089844-0.03125 0.027344 0.007813 0.22656-0.011719 0.26562-0.011719 0.21484 0 0.42578 0.019532 0.64062 0.023438l-0.003906-0.003906c0.52344-0.015625 0.9375-0.44141 0.9375-0.96484s-0.41406-0.95312-0.9375-0.96875z"/>
 </g>
</svg>
