<?xml version="1.0" encoding="UTF-8"?>
<svg width="128pt" height="128pt" version="1.1" viewBox="0 0 128 128" xmlns="http://www.w3.org/2000/svg">
 <path d="m105.07 116.65h9.7695c1.1719 0 2.1328-0.96094 2.1328-2.1328v-101.72c0-1.1719-0.96094-2.1328-2.1328-2.1328h-101.7c-1.1719 0-2.1328 0.96094-2.1328 2.1328v101.72c0 1.1719 0.96094 2.1328 2.1328 2.1328h9.7695c1.1719 0 2.1328-0.96094 2.1328-2.1328l0.003906-99.586h4.1797c-0.019531 0.042968-0.042968 0.085937-0.042968 0.12891-0.38281 1.5352-0.12891 3.1367 0.72656 4.4805l18.902 29.93c1.2383 1.9414 1.8789 4.2031 1.8789 6.5078v53.953c0 4.0742 3.3086 7.3828 7.3828 7.3828h0.66016c2.0469 0 3.9023-0.85156 5.2461-2.1992 1.3633 1.3633 3.2188 2.2148 5.2656 2.2148h0.66016c4.0742 0 7.3828-3.3086 7.3828-7.3828v-53.953c0-2.3047 0.66016-4.5664 1.8789-6.5078l18.902-29.93c0.85156-1.3438 1.1094-2.9453 0.72656-4.4805-0.003906-0.058594-0.023437-0.10156-0.042969-0.14453h4.1797v99.586c0 1.1719 0.96094 2.1328 2.1328 2.1328zm7.6602-4.2695h-5.5039v-97.449h5.5039zm-91.926 0h-5.5273v-97.449h5.5039v97.449zm37.953 0.68359h-0.66016c-1.7266 0-3.1133-1.4062-3.1133-3.1133v-32.215h6.8867v32.215c0 1.7266-1.4102 3.1133-3.1133 3.1133zm14.27-3.1133c0 1.7266-1.4062 3.1133-3.1133 3.1133h-0.66016c-1.707 0-3.1172-1.3867-3.1172-3.1133v-32.215h6.8906zm21.441-92.695-18.902 29.93c-1.6641 2.625-2.5391 5.6758-2.5391 8.7891v17.473h-18.047v-17.473c0-3.1133-0.875-6.1445-2.5391-8.7891l-18.902-29.93c-0.21484-0.36328-0.29688-0.76953-0.19141-1.1719 0.10547-0.40625 0.36328-0.74609 0.72656-0.96094 0.70313-0.40625 1.6016-0.19141 2.0469 0.49219l12.414 19.434c3.3906 5.3125 9.1953 8.4688 15.488 8.4688s12.098-3.1797 15.488-8.4688l12.414-19.434c0.44922-0.68359 1.3438-0.91797 2.0469-0.49219 0.36328 0.21484 0.61719 0.55469 0.72656 0.96094 0.10938 0.40625 0.003907 0.83203-0.23047 1.1719zm-18.582 15.512c-2.6016 4.0742-7.0625 6.5078-11.883 6.5078s-9.2812-2.4336-11.883-6.5078l-11.414-17.836h21.484c-5.2461 0.875-9.2578 5.3984-9.2578 10.879 0 6.1016 4.9688 11.051 11.051 11.051 6.0781 0 11.051-4.9492 11.051-11.051 0-5.4844-4.0117-10.004-9.2578-10.879h21.484zm-11.883-13.738c3.7344 0 6.7852 3.0508 6.7852 6.7852s-3.0508 6.7852-6.7852 6.7852c-3.7539 0-6.7852-3.0508-6.7852-6.7852 0-3.7383 3.0312-6.7852 6.7852-6.7852z" fill="#fff"/>
</svg>
