<?xml version="1.0" encoding="UTF-8"?>
<svg width="128pt" height="128pt" version="1.1" viewBox="0 0 128 128" xmlns="http://www.w3.org/2000/svg">
 <g>
  <path d="m46.273 71.625h-3.5469l1.7734 3.0742z"/>
  <path d="m47.273 20.426c2.1016 0.60156 3.6484 2.5234 3.6484 4.8242v0.60156h2.5781v-0.60156c0-2.0234-0.80078-3.9258-2.2266-5.3516-1.1016-1.1016-2.5-1.8242-4.0234-2.1016v-1.5h-5.5v52.75h5.5234z"/>
  <path d="m47.273 9.5742c0-1.5234-1.25-2.7734-2.7734-2.7734s-2.7734 1.25-2.7734 2.7734v4.125h5.5234v-4.125z"/>
  <path d="m25.699 43.5h8.0508c0.92578 0 1.6758-0.75 1.6758-1.6758s-0.75-1.6758-1.6758-1.6758h-8.0508c-0.92578 0-1.6758 0.75-1.6758 1.6758s0.75 1.6758 1.6758 1.6758z"/>
  <path d="m25.699 54.301h8.0508c0.92578 0 1.6758-0.75 1.6758-1.6758s-0.75-1.6758-1.6758-1.6758h-8.0508c-0.92578 0-1.6758 0.75-1.6758 1.6758s0.75 1.6758 1.6758 1.6758z"/>
  <path d="m25.699 65.125h8.0508c0.92578 0 1.6758-0.75 1.6758-1.6758s-0.75-1.6758-1.6758-1.6758h-8.0508c-0.92578 0-1.6758 0.75-1.6758 1.6758s0.75 1.6758 1.6758 1.6758z"/>
  <path d="m25.699 75.926h8.0508c0.92578 0 1.6758-0.75 1.6758-1.6758s-0.75-1.6758-1.6758-1.6758h-8.0508c-0.92578 0-1.6758 0.75-1.6758 1.6758s0.75 1.6758 1.6758 1.6758z"/>
  <path d="m25.699 86.727h8.0508c0.92578 0 1.6758-0.75 1.6758-1.6758s-0.75-1.6758-1.6758-1.6758h-8.0508c-0.92578 0-1.6758 0.75-1.6758 1.6758s0.75 1.6758 1.6758 1.6758z"/>
  <path d="m25.699 97.523h8.0508c0.92578 0 1.6758-0.75 1.6758-1.6758 0-0.92578-0.75-1.6758-1.6758-1.6758h-8.0508c-0.92578 0-1.6758 0.75-1.6758 1.6758 0 0.92578 0.75 1.6758 1.6758 1.6758z"/>
  <path d="m35.449 106.65c0-0.92578-0.75-1.6758-1.6758-1.6758h-8.0508c-0.92578 0-1.6758 0.75-1.6758 1.6758 0 0.92578 0.75 1.6758 1.6758 1.6758h8.0273c0.92578 0 1.6992-0.75 1.6992-1.6758z"/>
  <path d="m98 27.574h-48.148v42.75c0 0.35156-0.125 0.64844-0.35156 0.875l-3.875 6.7266c-0.22656 0.39844-0.64844 0.64844-1.125 0.64844s-0.89844-0.25-1.125-0.64844l-3.875-6.7266c-0.22656-0.22656-0.35156-0.55078-0.35156-0.875v-42.75h-2.875c-3.3008 0-5.9766 2.8242-5.9766 6.3242v4.9492h3.5234c1.6758 0 3.0234 1.3516 3.0234 3.0234 0 1.6758-1.3516 3.0234-3.0234 3.0234h-3.5234v4.7734h3.5234c1.6758 0 3.0234 1.3516 3.0234 3.0234 0 1.6758-1.3516 3.0234-3.0234 3.0234h-3.5234l0.003906 4.7852h3.5234c1.6758 0 3.0234 1.3516 3.0234 3.0234 0 1.6758-1.3516 3.0234-3.0234 3.0234h-3.5234v4.8008h3.5234c1.6758 0 3.0234 1.3516 3.0234 3.0234 0 1.6758-1.3516 3.0234-3.0234 3.0234h-3.5234v4.8008h3.5234c1.6758 0 3.0234 1.3516 3.0234 3.0234 0 1.6758-1.3516 3.0234-3 3.0234h-3.5234v4.7734h3.5234c1.6758 0 3.0234 1.3516 3.0234 3.0234 0 1.6758-1.3516 3.0234-3.0234 3.0234h-3.5234v4.75h3.5234c1.6758 0 3.0234 1.3516 3.0234 3.0234 0 1.6758-1.3516 3.0234-3.0234 3.0234h-3.5234v5c0 3.4766 2.6758 6.3242 5.9766 6.3242l61.699 0.015625c3.3008 0 5.9766-2.8242 5.9766-6.3242v-81c0-3.4766-2.6758-6.3008-5.9766-6.3008zm-50.398 57.551h5.9492c0.92578 0 1.6758 0.75 1.6758 1.6758s-0.75 1.6758-1.6758 1.6758h-5.9492c-0.92578 0-1.6758-0.75-1.6758-1.6758s0.75-1.6758 1.6758-1.6758zm32.098 25.023h-32.098c-0.92578 0-1.6758-0.75-1.6758-1.6758 0-0.92578 0.75-1.6758 1.6758-1.6758h32.102c0.92578 0 1.6758 0.75 1.6758 1.6758-0.003906 0.92578-0.75391 1.6758-1.6797 1.6758zm12.027 0h-5.0234c-0.92578 0-1.6758-0.75-1.6758-1.6758 0-0.92578 0.75-1.6758 1.6758-1.6758h5.0234c0.92578 0 1.6758 0.75 1.6758 1.6758-0.003906 0.92578-0.75391 1.6758-1.6758 1.6758zm0-10.848h-44.125c-0.92578 0-1.6758-0.75-1.6758-1.6758s0.75-1.6758 1.6758-1.6758h44.102c0.92578 0 1.6758 0.75 1.6758 1.6758 0.019532 0.92578-0.73047 1.6758-1.6523 1.6758zm0-10.824h-31.078c-0.92578 0-1.6758-0.75-1.6758-1.6758s0.75-1.6758 1.6758-1.6758h31.051c0.92578 0 1.6758 0.75 1.6758 1.6758s-0.72656 1.6758-1.6484 1.6758z"/>
 </g>
</svg>
