<?xml version="1.0" encoding="UTF-8"?>
<svg width="128pt" height="128pt" version="1.1" viewBox="0 0 128 128" xmlns="http://www.w3.org/2000/svg">
 <path d="m16.488 85.828-3.3164 3.3125v0.003906c-1.9141 1.918-1.9141 5.0273 0 6.9492l1.5781 1.5781-0.38281 0.38281c-1.8711 1.875-2.9219 4.4141-2.9219 7.0625 0 2.6445 1.0508 5.1875 2.9219 7.0586l1.457 1.457c1.875 1.8711 4.4141 2.9258 7.0625 2.9258 2.6484 0 5.1875-1.0547 7.0586-2.9258l0.38281-0.38281 1.5781 1.5781c1.9219 1.9141 5.0312 1.9141 6.9531 0l3.3125-3.3125 8.0039 8.0039c1.9219 1.918 5.0312 1.918 6.9531 0l4.0352-4.0352c0.76563-0.77344 1.25-1.7773 1.3789-2.8594 1.082-0.125 2.0898-0.60938 2.8633-1.3789l4.0352-4.0352h0.003906c1.918-1.918 1.918-5.0312 0-6.9492l-14.352-14.348 30.82-30.82 14.348 14.348c1.918 1.918 5.0312 1.918 6.9492 0l4.0352-4.0352c0.76562-0.76953 1.25-1.7773 1.3789-2.8555 1.082-0.12891 2.0859-0.61328 2.8594-1.3789l4.0352-4.0352c1.918-1.9219 1.918-5.0312 0-6.9531l-8.0078-8.0078 3.3164-3.3125v-0.003906c1.9141-1.918 1.9141-5.0273 0-6.9492l-1.5781-1.5781 0.38281-0.38281c1.8711-1.875 2.9258-4.4141 2.9258-7.0625 0-2.6445-1.0547-5.1875-2.9258-7.0586l-1.457-1.457c-1.8711-1.8711-4.4141-2.9258-7.0586-2.9258-2.6484 0-5.1875 1.0547-7.0625 2.9258l-0.38281 0.38281-1.5781-1.5781c-1.918-1.9141-5.0312-1.9141-6.9492 0l-3.3125 3.3125-8.0078-8.0078c-1.9219-1.918-5.0312-1.918-6.9531 0l-4.0391 4.0352c-0.76562 0.77344-1.25 1.7773-1.3789 2.8594-1.082 0.125-2.0898 0.60938-2.8594 1.3789l-4.0352 4.0352c-1.918 1.918-1.918 5.0312 0 6.9492l14.348 14.348-30.82 30.82-14.348-14.348c-1.918-1.918-5.0312-1.918-6.9492 0l-4.0352 4.0352c-0.76562 0.76953-1.2539 1.7773-1.3789 2.8555-1.082 0.12891-2.0859 0.61328-2.8594 1.3789l-4.0352 4.0391c-1.918 1.9219-1.918 5.0312 0 6.9531zm10.742 25.09c-2.3984 2.3984-6.2891 2.3984-8.6875 0l-1.457-1.457c-2.4023-2.4023-2.4023-6.293 0-8.6914l0.38281-0.38281 10.148 10.148zm73.539-93.832c2.3984-2.4023 6.2891-2.4023 8.6875 0l1.457 1.457c2.4023 2.3984 2.4023 6.2891 0 8.6875l-0.38281 0.38281-10.148-10.148zm-64.629 95.023c-0.41797 0.42188-1.1016 0.42188-1.5195 0l-18.73-18.73c-0.42188-0.41797-0.42188-1.1016 0-1.5195l3.3086-3.3164 20.258 20.258zm22.715-50.543 7.5781 7.5781-3.1094 3.1094-7.5742-7.5742zm5.8242-5.8242 7.5742 7.5742-3.1094 3.1172-7.5781-7.5781zm27.18-39.852c0.19922-0.20312 0.47266-0.31641 0.75781-0.31641 0.28906 0 0.5625 0.11328 0.76172 0.31641l18.73 18.73c0.42188 0.41797 0.42188 1.1016 0 1.5195l-3.3086 3.3164-20.258-20.258zm-22.312-0.66016 4.0352-4.0352v0.003907c0.20312-0.20312 0.47656-0.31641 0.76172-0.31641s0.55859 0.11328 0.76172 0.31641l9.3633 9.3633 22.969 22.965 9.3672 9.3672c0.41797 0.41797 0.41797 1.1016 0 1.5195l-4.0352 4.0391c-0.42188 0.41797-1.1016 0.41797-1.5234 0l-41.699-41.699c-0.41797-0.42188-0.41797-1.1016 0-1.5234zm-8.2734 8.2734 4.0352-4.0352h0.003906c0.41797-0.41797 1.0977-0.41797 1.5195 0l41.699 41.699c0.41797 0.42188 0.41797 1.1016 0 1.5195l-4.0352 4.0352v0.003906c-0.42188 0.41797-1.1016 0.41797-1.5195 0l-41.703-41.703c-0.41797-0.41797-0.41797-1.1016 0-1.5195zm21.926 28.875-8.2305 8.2266-7.5742-7.5742 8.2266-8.2305zm-30.168 15.016 7.5742 7.5742-8.2266 8.2305-7.5781-7.5781zm-33.562-2.082 4.0352-4.0352v-0.003906c0.41797-0.41797 1.1016-0.41797 1.5195 0l25.996 25.996 15.703 15.707h0.003906c0.41797 0.41797 0.41797 1.1016 0 1.5195l-4.0352 4.0352h-0.003906c-0.41797 0.41797-1.0977 0.41797-1.5195 0l-41.699-41.699c-0.41797-0.42188-0.41797-1.1016 0-1.5195zm-8.2734 8.2695 4.0352-4.0352c0.42188-0.41797 1.1016-0.41797 1.5234 0l41.699 41.699c0.41797 0.42188 0.41797 1.1016 0 1.5234l-4.0352 4.0352c-0.42188 0.41797-1.1016 0.41797-1.5234 0l-41.699-41.699c-0.41797-0.42188-0.41797-1.1016 0-1.5234z"/>
</svg>
