<?xml version="1.0" encoding="UTF-8"?>
<svg width="128pt" height="128pt" version="1.1" viewBox="0 0 128 128" xmlns="http://www.w3.org/2000/svg">
 <path d="m44.309 37.309c0.17578 0.054687 0.37109 0.089844 0.56641 0.089844h2.5547c0.19531 0 0.375-0.035157 0.55469-0.089844v6.2109c0 0.39453 0.32031 0.71094 0.71875 0.71094h30.582c0.39844 0 0.71875-0.32031 0.71875-0.71094v-6.2109c0.17969 0.054687 0.35938 0.089844 0.55469 0.089844h2.5664c0.19141 0 0.375-0.035157 0.55469-0.089844v8.7539c0 1.0195-0.81641 1.8359-1.8359 1.8359h-11.137c-0.38672 0.011718-0.70312 0.32422-0.69922 0.71875v13.75c-0.003906 0.03125-0.003906 0.054687 0 0.074218l3.2852 28.801c0.015625 0.089843 0.035156 0.17969 0.078125 0.26172l1.4453 2.5703c0.32812 0.60547 0.34375 1.2148 0.17578 1.6289-0.17188 0.41406-0.44531 0.64844-1 0.64844h-4.4062c-0.64453 0-0.90625-0.16406-1.1367-0.47656-0.23438-0.30469-0.39844-0.83594-0.47656-1.4648l-2.8438-24.961c-0.066406-0.59375-0.62891-1.0586-1.1562-1.0469-0.52344 0.015625-1.0586 0.44922-1.125 1.0469l-2.8438 24.965c-0.074218 0.62891-0.23047 1.1602-0.46094 1.4648-0.23438 0.30859-0.49609 0.47656-1.1367 0.47656h-4.4219c-0.55078 0-0.81641-0.23438-0.98438-0.64844-0.17188-0.41406-0.16406-1.0195 0.17578-1.6289l1.4336-2.5703c0.046875-0.078124 0.074219-0.17187 0.078125-0.26172l3.2852-28.801c0-0.019531 0.011719-0.046874 0.011719-0.074218v-13.75c0-0.39844-0.32031-0.71875-0.71094-0.71875h-11.137c-1.0195 0-1.8359-0.81641-1.8359-1.8359zm39.363-1.9688v0.070312c0 0.32422-0.23438 0.55859-0.55469 0.55859h-2.5664c-0.32031 0-0.55469-0.23438-0.55469-0.55859v-0.12109c0-0.98437 0.80078-1.7695 1.8281-1.7852 1.0312-0.015625 1.8438 0.80469 1.8438 1.8359zm-35.691 0v0.10547c0 0.30469-0.24609 0.52344-0.55469 0.52344h-2.5547c-0.32422 0-0.56641-0.23438-0.56641-0.55859v-0.12109c0-0.98437 0.80469-1.7695 1.8359-1.7852s1.8398 0.80469 1.8398 1.8359zm37.711-3.2656h1.8438c0.33984 0 0.58984 0.25 0.58984 0.60156v4.125c0 0.33984-0.25 0.60156-0.58984 0.60156h-1.8438c-0.33984 0-0.59375-0.26172-0.59375-0.60156v-4.125c0.003906-0.35156 0.25391-0.60156 0.59375-0.60156zm-9.5469 0h1.8203c0.34375 0 0.60156 0.25 0.60156 0.60156v4.125c0 0.33984-0.25 0.60156-0.60156 0.60156h-1.8203c-0.35156 0-0.60156-0.26172-0.60156-0.60156v-4.125c0-0.35156 0.25-0.60156 0.60156-0.60156zm-26.137 0h1.8398c0.35156 0 0.60156 0.25 0.60156 0.60156v4.125c0 0.33984-0.26172 0.60156-0.60156 0.60156h-1.8398c-0.33984 0-0.60156-0.26172-0.60156-0.60156v-4.125c0-0.35156 0.26172-0.60156 0.60156-0.60156zm-9.5547 0h1.8281c0.33984 0 0.59375 0.25 0.59375 0.60156v4.125c0 0.33984-0.25 0.60156-0.59375 0.60156h-1.8281c-0.33984 0-0.60156-0.26172-0.60156-0.60156v-4.125c0-0.35156 0.26172-0.60156 0.60156-0.60156zm23.434-0.42969c2.6797-0.058593 5.0586 1.8398 5.5352 4.5547 0.51953 3-1.4766 5.8281-4.4883 6.3438-3.0117 0.52344-5.8594-1.4766-6.3789-4.4766-0.52344-2.9883 1.4844-5.8242 4.4883-6.3516 0.28516-0.039063 0.56641-0.070313 0.84375-0.074219zm0.14062-1.4297c-0.39844 0-0.81641 0.03125-1.2266 0.10547-3.7695 0.64844-6.3047 4.2461-5.6484 8 0.32422 1.8789 1.3984 3.4609 2.8594 4.4805h-10.605v-4.0703c0.19531 0.058593 0.39062 0.089843 0.60156 0.089843h1.8398c1.1094 0 2.0234-0.92187 2.0234-2.0195v-4.125c0-1.1094-0.91016-2.0312-2.0234-2.0312h-1.8398c-1.0938 0-2.0156 0.90625-2.0312 2-0.51953-0.36328-1.1562-0.57031-1.8281-0.57031-0.67969 0-1.3203 0.20312-1.8438 0.57031-0.015626-1.1016-0.92578-2-2.0234-2h-1.8281c-1.1094 0-2.0195 0.92188-2.0195 2.0312v4.125c0 1.1055 0.91016 2.0195 2.0195 2.0195h1.8281c0.21094 0 0.41016-0.03125 0.60156-0.089843v7.3359c0 1.7891 1.4648 3.2656 3.2656 3.2656h10.41v13l-3.25 28.609-1.3789 2.4336c-0.52344 0.94141-0.60547 2-0.25 2.875 0.36328 0.875 1.2383 1.5352 2.3086 1.5352h4.4219c0.98438 0 1.7852-0.41406 2.2656-1.0508 0.47656-0.62891 0.66016-1.3867 0.75-2.1445l2.5703-22.582 2.5703 22.582c0.089844 0.76172 0.26172 1.5156 0.73438 2.1445 0.47656 0.63672 1.2969 1.0508 2.2812 1.0508h4.4062c1.0742 0 1.9453-0.66016 2.3086-1.5352 0.35547-0.87109 0.28125-1.9297-0.25-2.875l-1.3633-2.4336-3.2656-28.609v-13h10.414c1.7891 0 3.2656-1.4766 3.2656-3.2656v-7.3359c0.18359 0.058593 0.38672 0.089843 0.59375 0.089843h1.8438c1.1055 0 2.0195-0.92187 2.0195-2.0195v-4.125c0-1.1094-0.92188-2.0312-2.0195-2.0312h-1.8438c-1.0938 0-2.0117 0.90625-2.0234 2-0.52344-0.36328-1.1562-0.57031-1.8359-0.57031-0.68359 0-1.3086 0.20312-1.8398 0.57031-0.015626-1.1016-0.92578-2-2.0312-2h-1.8203c-1.1094 0-2.0312 0.92188-2.0312 2.0312v4.125c0 1.1055 0.92188 2.0195 2.0312 2.0195h1.8203c0.20312 0 0.41406-0.03125 0.60156-0.089843v4.0703h-10.594c2.1367-1.4961 3.3242-4.1367 2.8516-6.8516-0.56641-3.3516-3.4805-5.7188-6.7812-5.7344z"/>
</svg>
