<?xml version="1.0" encoding="UTF-8"?>
<svg width="128pt" height="128pt" version="1.1" viewBox="0 0 128 128" xmlns="http://www.w3.org/2000/svg">
 <path d="m34.668 0c-5.8555 0-10.668 4.8125-10.668 10.668v34.668c0 1.4727 1.1953 2.668 2.668 2.668 1.4727 0 2.668-1.1953 2.668-2.668v-18.668h69.332v18.668c0 1.4727 1.1953 2.668 2.668 2.668 1.4727 0 2.668-1.1953 2.668-2.668l-0.003906-34.668c0-5.8555-4.8125-10.668-10.668-10.668zm0 5.332h58.668c2.9414 0 5.332 2.3945 5.332 5.332v10.668h-69.332v-10.668c0-2.9414 2.3945-5.332 5.332-5.332zm24 5.332c-1.4766 0-2.668 1.1875-2.668 2.668 0 1.4766 1.1875 2.668 2.668 2.668h10.668c1.4766 0 2.6641-1.1875 2.6641-2.668 0-1.4766-1.1875-2.6641-2.668-2.6641zm13.316 42.641c-0.68359 0.003906-1.3594 0.26953-1.8789 0.79297l-6.1094 6.1094-6.1094-6.1094c-1.0391-1.0352-2.7266-1.0391-3.7695 0-1.0469 1.043-1.043 2.7344 0 3.7773l6.1133 6.1133-6.0898 6.1133c-1.043 1.043-1.043 2.7305 0 3.7695 1.043 1.0469 2.7266 1.0391 3.7656 0l6.1055-6.1055 6.1094 6.1094c0.48828 0.49219 1.1484 0.73047 1.8398 0.75391 0.71875 0.011719 1.418-0.26953 1.9258-0.77734 1.0469-1.043 1.043-2.7344 0-3.7773l-6.1133-6.1133 6.1055-6.125c1.043-1.043 1.043-2.7305 0-3.7695-0.52344-0.51172-1.207-0.76953-1.8906-0.76562zm-37.328 0.027343c-5.8594 0-10.668 4.8086-10.668 10.668s4.8086 10.668 10.668 10.668 10.668-4.8086 10.668-10.668-4.8086-10.668-10.668-10.668zm53.344 0c-2.9102 0-5.332 2.4258-5.332 5.332v10.668c0 2.9102 2.4258 5.332 5.332 5.332h10.668c2.9102 0 5.332-2.4258 5.332-5.332v-10.668c0-2.9102-2.4258-5.332-5.332-5.332zm-53.344 5.332c2.9766 0 5.332 2.3555 5.332 5.332 0 2.9766-2.3555 5.332-5.332 5.332s-5.332-2.3555-5.332-5.332c0-2.9766 2.3555-5.332 5.332-5.332zm53.344 0.003907h10.668v10.668h-10.668zm-61.332 21.332c-1.4727 0-2.668 1.1953-2.668 2.668v34.668c0 5.8555 4.8125 10.668 10.668 10.668h58.668c5.8555 0 10.668-4.8125 10.668-10.668v-34.668c0-1.4727-1.1953-2.668-2.668-2.668-1.4727 0-2.668 1.1953-2.668 2.668v18.668h-69.332v-18.668c0-1.4727-1.1953-2.668-2.668-2.668zm2.668 26.668h69.332v10.668c0 2.9414-2.3945 5.332-5.332 5.332h-58.668c-2.9414 0-5.332-2.3945-5.332-5.332zm34.668 5.332c-1.4727 0-2.668 1.1953-2.668 2.668 0 1.4727 1.1953 2.668 2.668 2.668s2.668-1.1953 2.668-2.668c0-1.4727-1.1953-2.668-2.668-2.668z" fill="#fff"/>
</svg>
