<?xml version="1.0" encoding="UTF-8"?>
<svg width="128pt" height="128pt" version="1.1" viewBox="0 0 128 128" xmlns="http://www.w3.org/2000/svg">
 <path d="m119.2 103.58c0-0.035156 0.035157-0.070313 0.035157-0.10547 0.69141-9.0273-1.5234-12.645-3.875-16.484-2.457-4.0117-5.2422-8.543-5.293-21.172-0.070312-15.828-6.6602-28.246-19.027-35.926l-0.44922-0.27734c-0.91797-0.60547-1.6797-3.0781-1.9727-4.8086 1.7656-3.5117 2.1797-7.9414 0.77734-12.297-1.2266-3.8242-3.668-7.0234-6.8516-8.9961-3.25-2.0234-6.918-2.543-10.293-1.4531-6.8672 2.2148-10.379 10.516-7.8008 18.492 1.2266 3.8242 3.668 7.0234 6.8516 8.9961 0.55469 0.34766 1.125 0.64062 1.6953 0.89844 1.7461 1.6797 2.8711 4.4297 3.3398 5.793-2.4727 2.3867-5.3633 6.2266-6.3828 11.711-1.0391 0.10547-2.5586 0.46875-3.9453 1.6797-1.2812 1.125-2.1641 2.6992-2.6797 4.7227l-4.1172-1.5742c-2.3867-0.91797-4.3594-2.5078-5.6914-4.6016-0.91797-1.418-1.625-3.4062-2.1289-5.8828-0.20703-1.0391-0.070313-2.1641 0.39844-3.1641 0.17188-0.37891 0.43359-0.72656 0.67578-1.1055 0.67578-0.96875 1.5039-2.1797 1.5039-3.7891v-4.8438c0-1.7109-1.2812-3.1133-2.9219-3.3555v-0.32812c0-1.8672-1.5234-3.3906-3.3906-3.3906-0.43359 0-0.84766 0.085938-1.2266 0.22656-0.62109-0.76172-1.5742-1.2461-2.6289-1.2461s-2.0078 0.48438-2.6289 1.2461c-0.37891-0.15625-0.79688-0.22656-1.2266-0.22656-1.2109 0-2.2852 0.64062-2.8867 1.6094-0.3125-0.085937-0.64063-0.13672-0.96875-0.13672-1.9023 0-3.3906 1.4531-3.3906 3.1289-0.035156 0.3125-0.91797 7.6797 4.9453 12.715 3.1289 2.6992 4.3398 8.1641 5.3984 12.992 0.58984 2.6641 2.6484 8.5781 2.6484 8.5781 3.5117 8.0273 7.7148 16.656 12.973 17.523 0.41406 0.070313 0.84766 0.10547 1.2969 0.10547 3.7031 0 8.3906-2.3516 14.34-7.2656 0.53516 2.3516 1.5586 5.9141 3.4062 8.8203-0.74219 0.39844-1.332 0.84766-1.8008 1.3828-1.625-0.15625-5.1562-0.25781-8.3555 1.2109-5.8828-1.2812-11.988 0.48438-15.152 1.6797-0.86328 0.32812-1.832 0.55469-3.1641 0.72656-4.2188 0.55469-10.535 3.043-13.785 5.4492-2.6797 1.9883-8.9609 4.2539-11.469 5.1016l-5.4297-8.4414c-0.51953-0.77734-0.86328-1.7656-1.0039-2.957-0.27734-2.2305-1.0039-3.875-2.1641-4.8789-0.86328-0.74219-2.1289-1.1953-2.3711-1.2617-0.5-0.15625-1.0547-0.050782-1.4375 0.3125-1.9023 1.7305-2.8711 4.4805-2.8711 8.1641v19.547c0 1.0898 0.44922 2.1641 1.2461 2.9219 0.76172 0.72656 1.7305 1.125 2.7656 1.125h0.17187c4.3398-0.13672 5.6562-0.58984 6.0195-0.77734 0.035156-0.015625 0.050781-0.035156 0.085937-0.050781 0.035157-0.015625 0.070313-0.015625 0.085938-0.050781 0.10547-0.070313 10.223-7.1445 20.41-6.9727 7.75 0.050781 13.855-2.3711 16.812-3.8555 1.1406-0.58984 2.3359-0.77734 3.4766-0.53516 2.7148 0.53516 5.8477 0.64063 7.5586 0.64063 0.53516 2.5938 1.3164 5.2773 2.4375 7.8359 0.22656 0.51953 0.74219 0.86328 1.3164 0.88281h0.39844c1.8008 0 9.1172-0.15625 13.25-2.4219 3.4062 2.25 5.4844 4.8438 6.4531 6.2969l-8.1992 5.2773c-0.77734 0.51953-1.7656 0.86328-2.957 1.0039-2.2305 0.27734-3.875 1.0039-4.8789 2.1641-0.74219 0.84766-1.1953 2.1289-1.2617 2.3711-0.15625 0.5-0.050781 1.0547 0.3125 1.4375 1.7305 1.9023 4.4805 2.8711 8.1641 2.8711h19.547c1.0898 0 2.1641-0.44922 2.9219-1.2461 0.76172-0.79688 1.1602-1.8516 1.1055-2.9414-0.10547-3.6133-0.44922-5.1211-0.65625-5.7422-0.27734-1.625-1.1602-3.5273-2.1289-5.2227 1.332 0.34766 2.6641 0.46875 4.0469 0.34766 6.9023-0.64062 11.641-7.2305 11.848-7.5078 0.035157-0.035157 0.035157-0.085938 0.050781-0.12109 0.035157-0.050782 0.050782-0.10547 0.085938-0.17188-0.042969-0.17969-0.007812-0.30078 0.007812-0.40234zm-51.977-83.93c-2.0742-6.4336 0.57031-13.094 5.9141-14.805 0.86328-0.27734 1.7461-0.41406 2.6289-0.41406 1.7656 0 3.5469 0.53516 5.207 1.5742 2.5938 1.6094 4.582 4.2383 5.6055 7.4023 2.0742 6.4336-0.57031 13.094-5.9141 14.805-2.543 0.83203-5.3281 0.41406-7.8359-1.1602-2.5977-1.6055-4.5859-4.2344-5.6055-7.4023zm-8.1328 56.133c-4.1523-0.67578-8.7852-11.277-10.777-15.793 0 0-1.9219-5.5-2.4727-8.0273-1.1602-5.2773-2.4727-11.242-6.3477-14.582-4.6523-3.9961-3.9766-9.8594-3.9453-10.293 0-0.3125 0.29297-0.37891 0.46875-0.37891 0.25781 0 0.46875 0.20703 0.46875 0.46875 0 0.8125 0.65625 1.4688 1.4688 1.4688s1.4688-0.65625 1.4688-1.4688v-1.4688c0-0.51953 0.93359-0.51953 0.93359 0 0 0.8125 0.65625 1.4688 1.4688 1.4688s1.4688-0.65625 1.4688-1.4688v-1.0039c0-0.51953 0.93359-0.51953 0.93359 0v1.0039c0 0.8125 0.65625 1.4688 1.4688 1.4688s1.4688-0.65625 1.4688-1.4688c0-0.51953 0.93359-0.51953 0.93359 0v1.3477c-0.57031 0.60547-0.93359 1.418-0.93359 2.3359 0 0.8125 0.65625 1.4688 1.4688 1.4688s1.4688-0.65625 1.4688-1.4688c0-0.51953 0.93359-0.51953 0.93359 0v4.8438c0 0.71094-0.44922 1.3672-0.98438 2.1445-0.32812 0.46875-0.65625 0.96875-0.91797 1.5234-0.72656 1.5586-0.95312 3.3398-0.60547 4.9805 0.57031 2.8359 1.4375 5.1562 2.543 6.8672 1.6797 2.6289 4.1328 4.6367 7.1094 5.7617l4.7031 1.8164c-0.035156 0.57031-0.070312 1.1406-0.050781 1.7461 0 0.8125 0.65625 1.4531 1.4688 1.4531h0.015625c0.8125 0 1.4531-0.65625 1.4531-1.4688-0.015625-3.4062 0.72656-5.8984 2.1641-7.1797 0.58984-0.51953 1.1953-0.77734 1.7109-0.89844-0.050781 1.0898-0.050781 2.1953 0.070313 3.3906 0.015624 0.20703 0.085937 0.41406 0.19141 0.58984 0.10547 0.17187 2.3008 3.875 10.223 7.2461-9.7773 9.6641-16.836 14.246-21.039 13.574zm17.715-6.4727c1.9727-1.7461 4.0469-3.7344 6.2773-5.9844 0.24219 0.085937 0.44922 0.17188 0.69141 0.24219 0.15625 0.050782 0.3125 0.070313 0.46875 0.070313 0.39844 0 0.77734-0.15625 1.0742-0.46875 0.39844-0.43359 9.8242-10.57 7.457-19.824-0.20703-0.77734-1.0039-1.2461-1.7812-1.0547-0.77734 0.20703-1.2617 1.0039-1.0547 1.7812 1.6602 6.4688-4.1875 14.062-6.125 16.379-7.7305-2.75-10.586-5.9336-11.242-6.7812-0.74219-9.8086 5.3086-15.289 7.9922-17.211 0.65625-0.46875 0.8125-1.3828 0.32812-2.043-0.46875-0.65625-1.3828-0.8125-2.043-0.32812-0.035156 0.035156-0.085938 0.070312-0.13672 0.10547-0.3125-0.79688-0.74219-1.7461-1.2969-2.7148 0.20703 0.015626 0.43359 0.050782 0.64062 0.050782 1.1953 0 2.3867-0.19141 3.5469-0.55469 1.8672-0.60547 3.4766-1.6602 4.793-3.0273 0.5 1.5586 1.3164 3.2344 2.5781 4.0664 0.12109 0.085937 0.3125 0.19141 0.53516 0.34766 14.496 8.9766 17.59 23.145 17.645 33.438 0.070312 13.441 3.0781 18.352 5.7266 22.676 1.8164 2.957 3.3203 5.4492 3.5469 10.414l-6.5898-9.2188c-4.8242-5.6406-12.125-8.9062-18.699-10.188-0.015624 0-5.5-1.1953-10.621-0.17188-2.3438-3.2695-3.3828-8.1484-3.7109-10zm-64.051 38.16h-0.015625c-0.3125-0.015625-0.58984-0.10547-0.79688-0.3125-0.22656-0.20703-0.34766-0.5-0.34766-0.79688v-19.547c0-2.3359 0.44922-4.1172 1.3164-5.3281 0.20703 0.10547 0.39844 0.22656 0.51953 0.32812 0.41406 0.36328 0.95312 1.1758 1.1758 3.0273 0.085938 0.67578 0.22656 1.3164 0.41406 1.9219l-1.2812 0.8125c-0.67578 0.43359-0.88281 1.332-0.44922 2.0234 0.27734 0.43359 0.76172 0.67578 1.2461 0.67578 0.25781 0 0.53516-0.070313 0.77734-0.22656l0.98438-0.62109 0.58984 0.89844-1.0391 0.65625c-0.67578 0.43359-0.88281 1.332-0.44922 2.0234 0.27734 0.43359 0.76172 0.67578 1.2461 0.67578 0.25781 0 0.53516-0.070313 0.77734-0.22656l1.0547-0.65625 0.58984 0.89844-1.0195 0.65625c-0.67578 0.43359-0.88281 1.332-0.44922 2.0234 0.27734 0.43359 0.76172 0.67578 1.2461 0.67578 0.25781 0 0.53516-0.070312 0.77734-0.22656l1.0391-0.65625 0.55469 0.86328c-3.1484 1.7461-4.793 4.6172-4.793 8.3555 0 0.58984 0.035156 1.1758 0.12109 1.8008-0.76562 0.10938-1.957 0.23047-3.7891 0.28125zm47.566-12.211c-1.7812-0.36328-3.6484-0.085937-5.3789 0.79688-2.7148 1.3672-8.3008 3.7188-15.445 3.5469h-0.41406c-8.3359 0-16.172 4.0664-19.734 6.2266 0-0.13672-0.015625-0.29297-0.015625-0.41406 0-3.1484 1.4375-5.1719 4.5156-6.3672 0.74219-0.24219 9.6328-3.1484 13.32-5.8828 2.8555-2.1289 8.6641-4.4102 12.418-4.9141 1.5586-0.20703 2.7344-0.48438 3.8242-0.89844 2.7344-1.0391 7.8516-2.5586 12.781-1.7305-0.050781 1.9219-0.050781 5.7617 0.60547 10.207-1.6875-0.019531-4.2812-0.12109-6.4766-0.57031zm8.8047-9.8438c1.8516-0.74219 3.8555-0.88281 5.2773-0.84766-0.48438 1.7656-0.48438 3.9102 0 6.2617 0.86328 4.1875 3.4414 9.3398 7.3516 12.332-2.9922 1.0391-7.2656 1.3477-9.6875 1.4023-3.0625-7.6445-3.0469-16.434-2.9414-19.148zm33.52 37.828c-0.20703 0.22656-0.5 0.34766-0.79688 0.34766h-19.547c-2.3359 0-4.1172-0.44922-5.3281-1.3164 0.10547-0.20703 0.22656-0.39844 0.32812-0.51953 0.36328-0.41406 1.1758-0.95312 3.0273-1.1758 0.67578-0.085937 1.3164-0.22656 1.9219-0.41406l0.8125 1.2812c0.27734 0.43359 0.76172 0.67578 1.2461 0.67578 0.25781 0 0.53516-0.070313 0.77734-0.22656 0.67578-0.43359 0.88281-1.332 0.44922-2.0234l-0.62109-0.98438 0.89844-0.58984 0.65625 1.0391c0.27734 0.43359 0.76172 0.67578 1.2461 0.67578 0.25781 0 0.53516-0.070313 0.77734-0.22656 0.67578-0.43359 0.88281-1.332 0.44922-2.0234l-0.65625-1.0547 0.89844-0.58984 0.65625 1.0195c0.27734 0.43359 0.76172 0.67578 1.2461 0.67578 0.25781 0 0.53516-0.070312 0.77734-0.22656 0.67578-0.43359 0.88281-1.332 0.44922-2.0234l-0.65625-1.0391 0.86328-0.55469c2.0234 3.6328 5.5352 5.2578 10.152 4.6719 0.10547 0.74219 0.20703 1.9219 0.25781 3.7695v0.015625c0.027344 0.31641-0.074219 0.59375-0.28516 0.81641zm-0.69141-7.4727c-3.7695 0.39844-6.125-1.0391-7.457-4.4609 0-0.015625-0.035157-0.035156-0.035157-0.050782-0.015625-0.015624 0-0.050781-0.015625-0.070312-0.10547-0.22656-2.6797-5.2578-8.9414-9.0625-0.015625-0.015625-0.035156-0.015625-0.070312-0.035156-0.22656-0.13672-0.46875-0.27734-0.71094-0.41406-3.4062-1.9219-6.4883-6.6094-7.4727-11.418-0.57031-2.7852-0.32812-5.1562 0.69141-6.5039 0.65625-0.86328 2.6641-1.8164 6.3672-1.9219 1.4688-0.050781 3.0977 0.050781 4.7734 0.29297 0.19141 3.0977 3.2344 5.7773 5.6719 7.6289 0.32812 0.24219 0.44922 0.71094 0.27734 1.0898l-1.7109 3.8047c-1.5586-1.9219-4.082-4.375-7.4727-5.2578-0.77734-0.19141-1.5742 0.27734-1.7812 1.0547-0.20703 0.77734 0.27734 1.5742 1.0547 1.7812 3.8398 0.98438 6.4688 4.8594 7.1797 6.0039 0 0.36328 0.015625 0.71094 0.085937 1.0547 0.39844 2.0742 1.5039 4.3398 2.3711 5.8633 0.46875 0.83203 1.0039 1.5391 1.6094 2.1289 0.43359 0.41406 0.84766 0.79688 1.2812 1.1406 1.0352 1.4023 3.3555 4.7422 4.3047 7.3516zm4.8789-6.9883c-2.8867 0.25781-5.7266-0.93359-8.457-3.582-0.39844-0.37891-0.76172-0.88281-1.0898-1.4531-0.62109-1.1055-1.6953-3.2188-2.043-5-0.13672-0.69141 0.085938-1.4023 0.29297-1.8672l2.1797-4.8438c0.74219-1.6445 0.25781-3.5469-1.1758-4.6367-2.4062-1.8164-3.8555-3.3906-4.3242-4.7031 5.5352 1.332 11.383 4.1875 15.309 8.7695l8.4219 11.812c-1.3828 1.6289-4.8242 5.1094-9.1133 5.5039z"/>
</svg>
