<?xml version="1.0" encoding="UTF-8"?>
<svg width="128pt" height="128pt" version="1.1" viewBox="0 0 128 128" xmlns="http://www.w3.org/2000/svg">
 <path d="m80.523 39.965h10.336c0.44922 0 0.80078 0.33984 0.80078 0.78516s-0.35156 0.78516-0.80078 0.78516h-1.8906c-0.39062 0-0.71094 0.32031-0.71094 0.71875v57.414c0 0.44531-0.35547 0.78516-0.80078 0.78516-0.44531 0-0.80078-0.34375-0.80078-0.78516v-57.414c0-0.39453-0.30859-0.71094-0.70312-0.71875h-5.4219v-1.4336c-0.011719-0.046874-0.011719-0.089843-0.011719-0.13672zm-26.531 0h20.012c-0.011718 0.046875-0.011718 0.089844-0.011718 0.13672v1.4336h-20v-1.4336c0-0.046874-0.003907-0.089843-0.003907-0.13672zm-16.844 0h10.324v1.5703h-5.4219c-0.39062 0-0.71094 0.32031-0.71094 0.71875v57.414c0 0.44141-0.33984 0.78516-0.78516 0.78516-0.45313 0-0.80078-0.33984-0.80078-0.78516l-0.003906-57.414c0-0.39844-0.32031-0.71875-0.71094-0.71875h-1.8906c-0.44922 0-0.80078-0.33984-0.80078-0.78516s0.35156-0.78516 0.80078-0.78516zm13.586-1.7031c1.0195 0 1.8398 0.81641 1.8398 1.8398v4.3047c-0.011719 0.074219-0.011719 0.14844 0 0.21484v2.0312c0 0.39453 0.32031 0.71875 0.71875 0.71875 0.39062 0 0.71094-0.32422 0.71094-0.71875v-1.8906c0.55469-0.64453 1.1289-1.25 1.7539-1.7891h16.492c0.62109 0.53906 1.1992 1.1445 1.7539 1.7891v1.8906c0 0.39453 0.32031 0.71875 0.71094 0.71875 0.39844 0 0.71875-0.32422 0.71875-0.71875v-2c0.015625-0.085938 0.015625-0.17578 0-0.26562v-4.2812c0-1.0195 0.81641-1.8398 1.8398-1.8398 1.0195 0 1.8398 0.81641 1.8398 1.8398v11.703c0 1.0195-0.81641 1.8281-1.8438 1.8398-0.44531 0.011718-0.67969-0.089844-0.95312-0.28906-0.27344-0.20312-0.57031-0.55469-0.92188-0.98828-1.3633-1.7031-4.1055-5.1094-4.1055-5.1094-0.42578-0.52344-1.2734-0.23047-1.2656 0.44922l0.050781 26.359c0 0.066407 0.015625 0.13672 0.03125 0.19922l3.5664 11.879c0.17188 0.56641 0.17188 1.0586 0.03125 1.4141-0.14062 0.36328-0.39844 0.63672-1.0156 0.82422l-4.2344 1.2656c-0.52344 0.16406-0.85156 0.015625-1.1367-0.33594-0.28125-0.34375-0.44922-0.94141-0.30469-1.6133l0.64453-2.875c0.03125-0.12109 0.023438-0.24609-0.011719-0.35938l-2.8906-9.6133v-9.6133c0-0.39844-0.32422-0.71875-0.71875-0.71875-0.39453 0-0.71875 0.32422-0.71875 0.71875v9.7188c0.011719 0.074218 0.019532 0.14844 0.035156 0.21484l2.8633 9.5234-0.60156 2.6914c-0.10547 0.44531-0.12109 0.88672-0.058593 1.3047l-3.8867 1.1602c-0.53516 0.16406-0.86328 0.015625-1.1484-0.32812-0.28125-0.35156-0.44531-0.94141-0.28906-1.6133l0.63672-2.875c0.03125-0.12109 0.019531-0.24609-0.011719-0.35937l-2.6055-8.6445c-0.33594-1.125-0.29688-1.3555-0.28906-2.3086l0.03125-26.008c0.011718-0.68359-0.85156-0.98047-1.2734-0.44922 0 0-2.7344 3.4062-4.1055 5.1094-0.34375 0.43359-0.63672 0.78516-0.91016 0.98828-0.27344 0.19922-0.51172 0.30078-0.95312 0.28906-1.0352-0.015625-1.8555-0.81641-1.8555-1.8398v-11.703c0.003907-1.0312 0.82031-1.8438 1.8438-1.8438zm13.305-10.719c2.6289 0.011719 4.9297 1.8906 5.3984 4.5547 0.52344 3-1.4766 5.8281-4.4883 6.3555-0.26172 0.046875-0.51172 0.074219-0.76953 0.078125h-0.33984c-2.5703-0.074219-4.8164-1.9258-5.2656-4.5508-0.52344-2.9883 1.4805-5.8359 4.4883-6.3594 0.32812-0.054688 0.65625-0.085938 0.97656-0.078125zm-0.16406-1.4219c-0.35547 0-0.70312 0.035156-1.0586 0.09375-3.7617 0.66016-6.2969 4.2617-5.6445 8.0156 0.31641 1.7812 1.2812 3.2812 2.625 4.3047h-6.1953c-0.55469-1.0156-1.6406-1.7031-2.8633-1.7031-1.2305 0-2.3047 0.69141-2.8594 1.7031h-10.727c-1.2148 0-2.2188 0.98828-2.2188 2.2148 0 1.2148 1.0039 2.2148 2.2188 2.2148h1.1758v56.707c0 1.2148 1.0039 2.2148 2.2188 2.2148 1.2148-0.011719 2.2188-1 2.2188-2.2148l0.003906-56.707h4.7031v8.8359c0 1.7891 1.4688 3.2461 3.25 3.2656 0.72656 0.003906 1.3516-0.23438 1.8203-0.58594 0.48047-0.35547 0.82812-0.79688 1.1797-1.2305 0.94922-1.1797 1.9414-2.4102 2.8359-3.5234l-0.023438 23.965c0 0.93359-0.03125 1.4961 0.35156 2.7344l2.5508 8.4766-0.60938 2.6914c-0.23438 1.0508-0.003906 2.0898 0.58594 2.8203 0.60156 0.72656 1.6289 1.1094 2.6602 0.80859l3.9805-1.1992c0.046874 0.066406 0.089843 0.13672 0.14062 0.19531 0.59375 0.73438 1.625 1.1211 2.6562 0.80859l4.2344-1.2734c0.94141-0.28516 1.6133-0.89062 1.9219-1.6445 0.30469-0.75391 0.26172-1.5781 0.023438-2.3633l-3.5352-11.773-0.050782-24.23c0.90625 1.1211 1.8906 2.3516 2.8359 3.5234 0.35156 0.43359 0.69531 0.87109 1.1719 1.2305 0.48047 0.35156 1.1055 0.60156 1.8281 0.58594 1.7852-0.023437 3.2617-1.4766 3.2617-3.2656v-8.8359h4.7109v56.707c0 1.2148 0.99609 2.2031 2.1992 2.2148 1.2266 0 2.2305-0.98828 2.2305-2.2148v-56.715h1.1836c1.2148 0 2.2148-1 2.2148-2.2148 0-1.2266-1-2.2148-2.2148-2.2148h-10.734c-0.55469-1.0156-1.6367-1.7031-2.8594-1.7031-1.2305 0-2.3086 0.69141-2.8633 1.7031h-6.1758c1.9805-1.5195 3.0664-4.0586 2.6055-6.6758-0.59375-3.4102-3.6016-5.8047-6.9648-5.7383z"/>
</svg>
