<?xml version="1.0" encoding="UTF-8"?>
<svg width="128pt" height="128pt" version="1.1" viewBox="0 0 128 128" xmlns="http://www.w3.org/2000/svg">
 <g>
  <path d="m73.738 40.555c-0.44141 0-0.875-0.03125-1.3086-0.09375-2.6914-0.375-5.0742-1.8438-6.7266-4.1406-1.625-2.2656-2.3281-5.0703-1.9961-7.8945l0.32422-2.7109c0.35156-2.9414 1.8438-5.625 4.0938-7.3594 2.0938-1.6211 4.6602-2.3086 7.2266-1.9531 2.6914 0.375 5.0742 1.8438 6.7266 4.1406 1.625 2.2656 2.3281 5.0703 1.9961 7.8945l-0.32422 2.7109c-0.35156 2.9414-1.8438 5.625-4.0938 7.3594-1.7461 1.3438-3.8008 2.0508-5.9141 2.0508zm0.30469-21.246c-1.4531 0-2.8789 0.48828-4.0898 1.4219-1.6211 1.25-2.6953 3.1953-2.9492 5.3438l-0.32422 2.7109c-0.50391 4.2617 2.25 8.1719 6.1484 8.7031 1.7617 0.24609 3.5312-0.23828 4.9805-1.3555 1.6211-1.25 2.6953-3.1953 2.9492-5.3438l0.32422-2.7109c0.50391-4.2617-2.25-8.1719-6.1484-8.7031-0.29688-0.039062-0.58984-0.066406-0.89062-0.066406z"/>
  <path d="m78.035 29.969c-0.30469 0-0.61328-0.09375-0.87109-0.28125l-3.6289-2.5938-3.1211 1.1094c-0.52344 0.19141-1.1094 0.070313-1.5195-0.30859l-3.7461-3.4492c-0.60547-0.55859-0.64844-1.5117-0.089844-2.1211 0.55859-0.60547 1.5117-0.64844 2.1211-0.089844l3.0742 2.8281 3-1.0703c0.46094-0.16016 0.97656-0.09375 1.375 0.19531l3.5938 2.5586 3.8242-1.5781c0.76172-0.32422 1.6445 0.023437 1.9688 0.78906 0.32422 0.76172-0.023437 1.6445-0.78906 1.9688l-0.011718 0.003907c-0.003906 0-0.011719 0.003906-0.019532 0.003906l-4.6016 1.9062c-0.17578 0.085937-0.37109 0.125-0.56641 0.125z"/>
  <path d="m43.621 112.29h-0.48828c-1.8242 0-3.4414-1.2305-3.9219-2.9883l-2.1602-7.8906c0-0.011718-0.003906-0.019531-0.003906-0.03125-0.44531-1.7734 0.27344-3.6562 1.8008-4.6797l2.5938-1.7461c0.59375-0.39844 1.3789-0.32422 1.8906 0.17578l5.1719 5.0898c0.35156 0.34375 0.51172 0.84375 0.42578 1.3281l-1.3047 7.3867c-0.34375 1.9414-2.0234 3.3555-4 3.3555zm-3.6719-11.648 2.1562 7.8711c0.125 0.46094 0.55078 0.78125 1.0234 0.78125h0.48828c0.51953 0 0.95312-0.37109 1.0469-0.87891l1.1641-6.6055-3.7383-3.6758-1.5742 1.0586c-0.46875 0.31641-0.69531 0.89844-0.56641 1.4492z"/>
  <path d="m86 93.148c-0.25391 0-0.51953-0.070313-0.75391-0.20313l-5.7969-3.3945c-0.66016-0.39062-0.92578-1.2109-0.60547-1.9102l3.9883-8.8203-11.98-2.7539c-4.6094-1.0391-8.4531-4.2539-10.273-8.6211l-1.7109-4.1016c-0.19531-0.46094-0.14453-0.99609 0.14062-1.4062 0.28125-0.42188 0.74609-0.67188 1.25-0.67188h16.586c0.19922 0 0.39844 0.039063 0.58984 0.12109l15.18 6.4414c2.2656 0.96094 3.9492 2.8594 4.625 5.2305 0.67578 2.3594 0.25391 4.875-1.1641 6.8789l-8.8398 12.574c-0.29688 0.41016-0.76562 0.63672-1.2344 0.63672zm-3.875-5.5039 3.4414 2.0156 8.0469-11.445c0.89062-1.2695 1.1562-2.8438 0.73047-4.3281-0.42578-1.4883-1.4883-2.6914-2.9102-3.2969l-14.902-6.3203h-14.035l0.84375 2.0234c1.4492 3.4688 4.5 6.0312 8.1719 6.8516h0.003906l13.77 3.1719c0.44141 0.10156 0.80469 0.39453 1.0039 0.79688 0.19922 0.39844 0.20313 0.875 0.023438 1.2812z"/>
  <path d="m86.328 102.8c-0.94922 0-1.8594-0.32812-2.6016-0.94922l-6.3516-5.3203c-1.7461-1.4609-2.0703-4.0508-0.73828-5.8945l2.3438-3.25c0.44922-0.625 1.3047-0.80469 1.9766-0.42188l5.7969 3.3945c0.26953 0.15625 0.48828 0.39844 0.61328 0.69141l2.6797 6.0508c0.625 1.4062 0.39062 3.0742-0.60156 4.2539-0.69922 0.82812-1.6758 1.3438-2.7539 1.4414-0.12109 0-0.24609 0.003906-0.36328 0.003906zm-5.7031-12.559-1.5469 2.1445c-0.42188 0.57422-0.30859 1.3906 0.23047 1.8438l6.3516 5.3203c0.21875 0.17969 0.49609 0.26953 0.77344 0.24609 0.28125-0.023437 0.53906-0.15625 0.71875-0.375 0.25391-0.30469 0.32031-0.74609 0.15625-1.1094l-2.4844-5.6055z"/>
  <path d="m45.727 65.746c-0.33984 0-0.67578-0.039063-1.0039-0.10547-1.3516-0.28125-2.5312-1.1211-3.2383-2.3047-0.70312-1.1797-0.89062-2.6211-0.5-3.9414l3.6094-12.227c0.42578-1.4258 1.2031-2.7188 2.2734-3.75 1.0703-1.0312 2.3945-1.7695 3.8281-2.1406l12.41-3.1953c1.3594-0.35156 2.7617-0.53125 4.1719-0.53125h8.8047c1.6719 0 3.2461 0.73047 4.3203 2.0156 1.0742 1.2812 1.5234 2.9531 1.2383 4.6016l-3.3242 18.855c-0.125 0.71875-0.75 1.2383-1.4766 1.2383l-16.594-0.003907c-0.44531 0-0.85938-0.19531-1.1445-0.53125-0.28516-0.33984-0.40625-0.78125-0.33984-1.2188l1.8984-11.371-6.6562 0.64453-3.6016 10.594c-0.67969 2.0156-2.5586 3.3633-4.6797 3.3633zm-0.39844-3.0469c0.12891 0.023437 0.26953 0.046875 0.39844 0.046875 0.82813 0 1.5742-0.53125 1.8398-1.3203l3.9102-11.512c0.19141-0.55469 0.69141-0.94922 1.2734-1.0117l9.5586-0.92969c0.46094-0.046875 0.92578 0.12891 1.2461 0.46875 0.32031 0.33594 0.46094 0.80859 0.37891 1.2695l-1.9297 11.555h13.559l3.1055-17.621c0.14062-0.76953-0.074219-1.5547-0.57422-2.1562-0.5-0.60156-1.2383-0.94531-2.0195-0.94531h-8.8047c-1.1484 0-2.3008 0.14453-3.4219 0.42969l-12.41 3.1953c-1.8945 0.48828-3.4219 1.9531-3.9766 3.8398l-3.6094 12.227c-0.15625 0.52344-0.089843 1.0742 0.19531 1.5508 0.28906 0.48047 0.73828 0.80078 1.2734 0.91016z"/>
  <path d="m47.445 102.8c-0.37891 0-0.76172-0.14453-1.0508-0.42969l-5.1719-5.0898c-0.58984-0.57812-0.60156-1.5234-0.019531-2.1211l13.711-14.004 3.8594-18.691c0.17187-0.80859 0.96094-1.3281 1.7734-1.1641 0.80859 0.17188 1.3281 0.96094 1.1641 1.7734l-3.9609 19.121c-0.054688 0.28125-0.19531 0.53906-0.39844 0.74609l-12.969 13.25 3.1758 3.125 14.582-11.195c2.1055-1.6094 3.6289-3.8047 4.4219-6.3398 0.003906-0.011719 0.011719-0.03125 0.011719-0.046875l2.6914-7.75c0.26953-0.78125 1.125-1.1992 1.9062-0.92578 0.78125 0.26953 1.1953 1.125 0.92578 1.9062l-2.6797 7.7266c-0.97656 3.1094-2.8594 5.8086-5.4492 7.8008l-15.609 11.988c-0.26953 0.21875-0.58984 0.32031-0.90625 0.32031z"/>
  <path d="m89.945 48.77c-0.35937 0-0.72656-0.12891-1.0117-0.39453l-4.8555-4.4688c-2.3516-2.1562-5.3945-3.3516-8.5898-3.3516-0.82812 0-1.5-0.67188-1.5-1.5 0-0.82813 0.67188-1.5 1.5-1.5 3.9453 0 7.7109 1.4688 10.609 4.1406l4.8555 4.4688c0.61328 0.55859 0.64844 1.5117 0.089844 2.1211-0.29688 0.32031-0.69922 0.48438-1.1016 0.48438z"/>
  <path d="m90.488 58.273c-1.5938 0-3.125-0.57813-4.3086-1.6289l-7.8398-6.9258c-0.62109-0.55078-0.67969-1.4961-0.12891-2.1211 0.55078-0.62109 1.4961-0.67969 2.1211-0.12891l7.8398 6.9258c0.64453 0.57031 1.4688 0.87891 2.3242 0.87891 0.66016 0 1.3086-0.19141 1.875-0.53906 0.55859-0.35156 1.0039-0.85547 1.2969-1.4531l5.7383-11.961c0.23047-0.47656 0.25391-1.0117 0.078125-1.5117s-0.53906-0.89453-1.0195-1.1211c-0.26172-0.125-0.54688-0.19141-0.82812-0.19141-0.71875 0-1.3789 0.39453-1.7266 1.0234-0.39844 0.72656-1.3086 0.99609-2.0391 0.59375-0.72656-0.39844-0.99609-1.3086-0.59375-2.0391 0.875-1.5938 2.5469-2.5781 4.3555-2.5781 0.73047 0 1.4453 0.15625 2.1055 0.46875 1.2031 0.57031 2.1211 1.5703 2.5703 2.8242 0.44922 1.2539 0.375 2.6094-0.19922 3.8086l-5.7383 11.961c-0.53125 1.1094-1.3594 2.0469-2.4062 2.6953-1.0391 0.67188-2.2383 1.0156-3.4688 1.0156z"/>
  <path d="m45.727 65.746c-0.33984 0-0.67578-0.039063-1.0039-0.10547-1.3516-0.28125-2.5312-1.1211-3.2383-2.3047-0.70312-1.1797-0.89062-2.6211-0.5-3.9414l3.6094-12.227c0.42578-1.4258 1.2031-2.7188 2.2734-3.75 1.0703-1.0312 2.3945-1.7695 3.8281-2.1406 0.39063-0.10156 0.80469-0.039063 1.1484 0.17188 0.34375 0.20312 0.59375 0.54688 0.69141 0.94141l1.8242 7.6602c0.058594 0.27344 0.050781 0.55859-0.039063 0.82812l-3.9102 11.504c-0.68359 2.0117-2.5664 3.3594-4.6836 3.3594zm-0.39453-3.0469c0.12891 0.023437 0.26953 0.046875 0.39453 0.046875 0.82813 0 1.5742-0.53125 1.8398-1.3203l3.7734-11.102-1.3203-5.5508c-1.2109 0.71094-2.1406 1.8711-2.5508 3.2461l-3.6094 12.227c-0.15625 0.52344-0.089844 1.0742 0.19531 1.5508 0.28516 0.47656 0.73437 0.79688 1.2734 0.90625z"/>
  <path d="m90.488 58.273c-1.5938 0-3.125-0.57813-4.3086-1.6289-0.44922-0.39844-0.62109-1.0312-0.42578-1.6016l2.7734-8.2461c0.03125-0.078125 0.058594-0.16016 0.10547-0.24609l4.6406-8.4688c0.875-1.5938 2.5469-2.5781 4.3555-2.5781 0.73047 0 1.4453 0.15625 2.1055 0.46875 1.2031 0.57031 2.1211 1.5703 2.5703 2.8242 0.44922 1.2539 0.375 2.6094-0.19922 3.8086l-5.7383 11.961c-0.53125 1.1094-1.3594 2.0469-2.4062 2.6953-1.0391 0.66406-2.2383 1.0117-3.4688 1.0117zm-1.5391-3.3516c0.47656 0.23047 1 0.35547 1.5391 0.35547 0.66016 0 1.3086-0.19141 1.875-0.53906 0.55859-0.35156 1.0039-0.85547 1.2969-1.4531l5.7383-11.961c0.23047-0.47656 0.25391-1.0117 0.078124-1.5117-0.17578-0.5-0.53906-0.89453-1.0195-1.1211-0.26172-0.125-0.54688-0.19141-0.82812-0.19141-0.71875 0-1.3789 0.39453-1.7266 1.0234l-4.5859 8.3438z"/>
  <path d="m62.469 50.969c-0.078125 0-0.17188-0.003906-0.25-0.019531-0.82031-0.14062-1.3711-0.91016-1.2305-1.7266l0.375-2.2188c0.14062-0.82031 0.91016-1.3711 1.7266-1.2305 0.82031 0.14062 1.3711 0.91016 1.2305 1.7266l-0.375 2.2188c-0.125 0.73047-0.75391 1.25-1.4766 1.25z"/>
  <path d="m65.625 88.254c-0.23047 0-0.46875-0.054687-0.69531-0.17188l-9.3398-4.8711c-0.73828-0.37891-1.0195-1.2891-0.63672-2.0234 0.37891-0.73828 1.2891-1.0195 2.0234-0.63672l9.3398 4.8711c0.73828 0.37891 1.0195 1.2891 0.63672 2.0234-0.26562 0.51172-0.78516 0.80469-1.3281 0.80469z"/>
  <path d="m77.32 77.52c-0.39453 0-0.78125-0.14844-1.0742-0.45312-0.57422-0.59375-0.55859-1.5469 0.03125-2.1211l9.3555-9.0742c0.59375-0.57422 1.5469-0.55859 2.1211 0.03125 0.57422 0.59375 0.55859 1.5469-0.03125 2.1211l-9.3555 9.0742c-0.28906 0.28125-0.67188 0.42578-1.0469 0.42578z"/>
  <path d="m45.805 49.855h-19.281c-0.82813 0-1.5-0.67188-1.5-1.5s0.67187-1.5 1.5-1.5h19.281c0.82812 0 1.5 0.67188 1.5 1.5 0 0.83594-0.66406 1.5-1.5 1.5z"/>
  <path d="m42.789 60.07h-16.266c-0.82813 0-1.5-0.67187-1.5-1.5 0-0.82812 0.67187-1.5 1.5-1.5h16.262c0.82812 0 1.5 0.67188 1.5 1.5 0 0.82813-0.66406 1.5-1.4961 1.5z"/>
  <path d="m58.441 72.98h-23.547c-0.82812 0-1.5-0.67188-1.5-1.5s0.67188-1.5 1.5-1.5h23.547c0.82812 0 1.5 0.67188 1.5 1.5 0 0.82422-0.67188 1.5-1.5 1.5z"/>
  <path d="m53.906 85.82h-19.012c-0.82812 0-1.5-0.67187-1.5-1.5 0-0.82812 0.67188-1.5 1.5-1.5h19.012c0.82812 0 1.5 0.67188 1.5 1.5 0 0.82813-0.67578 1.5-1.5 1.5z"/>
 </g>
</svg>
