<?xml version="1.0" encoding="UTF-8"?>
<svg width="128pt" height="128pt" version="1.1" viewBox="0 0 128 128" xmlns="http://www.w3.org/2000/svg">
 <g fill="none" stroke="#000" stroke-linecap="round" stroke-linejoin="round" stroke-miterlimit="10">
  <path transform="scale(1.28)" d="m55.124 57.803c0.44556-1.0681 1.2939-1.9684 2.4475-2.4475-1.1536 0.47913-2.002 1.3763-2.4475 2.4475z"/>
  <path transform="scale(1.28)" d="m79.047 69.998h-0.003052c1.2726-1.2726 1.2726-3.3356 0-4.6112l-59.042-0.003052v4.6173z"/>
  <path transform="scale(1.28)" d="m57.571 55.356-13.513-9.0302-3.299 3.302c-1.181 1.181-2.8137 1.9104-4.6173 1.9104h-13.379c-1.767 4.2664-2.7618 8.9416-2.7618 13.849h59.045c0-0.93994-0.18921-1.8311-0.52795-2.6489-0.3479-0.84534-0.8606-1.6083-1.4984-2.2461h-0.009156c-0.63782-0.63782-1.3977-1.1505-2.243-1.5015z"/>
  <path transform="scale(1.28)" d="m47.031 48.309-2.774 2.774z"/>
  <path transform="scale(1.28)" d="m49.792 50.159-2.771 2.771z"/>
  <path transform="scale(1.28)" d="m49.786 54.779 2.774-2.774z"/>
  <path transform="scale(1.28)" d="m51.144 65.384c0-4.4617-3.6133-8.078-8.075-8.078h-22.144c-0.2594 1.1353-0.46692 2.2919-0.61951 3.4637h18.149c2.5452 0 4.6112 2.063 4.6112 4.6173z"/>
  <path transform="scale(1.28)" d="m89.999 89.999h-79.999l5.0018-19.998h69.998z"/>
  <path transform="scale(1.28)" d="m25 89.999v-7.5012c0-2.7496 2.2491-4.9988 5.0018-4.9988h39.996c2.7527 0 5.0018 2.2491 5.0018 4.9988v7.5012z"/>
  <path transform="scale(1.28)" d="m44.061 46.326v-36.325h-21.298v41.537h13.382c1.8005 0 3.4363-0.72937 4.6173-1.9104 0-0.003052 3.299-3.3051 3.299-3.302z"/>
 </g>
</svg>
